%TF.GenerationSoftware,KiCad,Pcbnew,(6.0.11)*%
%TF.CreationDate,2023-02-12T20:23:43+01:00*%
%TF.ProjectId,ParentsHob2HoodController,50617265-6e74-4734-986f-6232486f6f64,rev?*%
%TF.SameCoordinates,Original*%
%TF.FileFunction,Paste,Top*%
%TF.FilePolarity,Positive*%
%FSLAX46Y46*%
G04 Gerber Fmt 4.6, Leading zero omitted, Abs format (unit mm)*
G04 Created by KiCad (PCBNEW (6.0.11)) date 2023-02-12 20:23:43*
%MOMM*%
%LPD*%
G01*
G04 APERTURE LIST*
G04 Aperture macros list*
%AMRoundRect*
0 Rectangle with rounded corners*
0 $1 Rounding radius*
0 $2 $3 $4 $5 $6 $7 $8 $9 X,Y pos of 4 corners*
0 Add a 4 corners polygon primitive as box body*
4,1,4,$2,$3,$4,$5,$6,$7,$8,$9,$2,$3,0*
0 Add four circle primitives for the rounded corners*
1,1,$1+$1,$2,$3*
1,1,$1+$1,$4,$5*
1,1,$1+$1,$6,$7*
1,1,$1+$1,$8,$9*
0 Add four rect primitives between the rounded corners*
20,1,$1+$1,$2,$3,$4,$5,0*
20,1,$1+$1,$4,$5,$6,$7,0*
20,1,$1+$1,$6,$7,$8,$9,0*
20,1,$1+$1,$8,$9,$2,$3,0*%
G04 Aperture macros list end*
%ADD10RoundRect,0.250000X0.475000X-0.337500X0.475000X0.337500X-0.475000X0.337500X-0.475000X-0.337500X0*%
%ADD11RoundRect,0.250000X0.625000X-0.375000X0.625000X0.375000X-0.625000X0.375000X-0.625000X-0.375000X0*%
%ADD12RoundRect,0.250000X-0.350000X-0.450000X0.350000X-0.450000X0.350000X0.450000X-0.350000X0.450000X0*%
%ADD13RoundRect,0.200000X0.200000X0.800000X-0.200000X0.800000X-0.200000X-0.800000X0.200000X-0.800000X0*%
%ADD14RoundRect,0.250000X-0.475000X0.337500X-0.475000X-0.337500X0.475000X-0.337500X0.475000X0.337500X0*%
%ADD15RoundRect,0.150000X-0.150000X0.587500X-0.150000X-0.587500X0.150000X-0.587500X0.150000X0.587500X0*%
%ADD16RoundRect,0.250000X-0.337500X-0.475000X0.337500X-0.475000X0.337500X0.475000X-0.337500X0.475000X0*%
%ADD17R,0.550000X1.600000*%
%ADD18R,1.600000X0.550000*%
%ADD19RoundRect,0.250000X0.337500X0.475000X-0.337500X0.475000X-0.337500X-0.475000X0.337500X-0.475000X0*%
G04 APERTURE END LIST*
D10*
%TO.C,C4*%
X54864000Y-26945500D03*
X54864000Y-24870500D03*
%TD*%
D11*
%TO.C,D1*%
X50673000Y-24895000D03*
X50673000Y-22095000D03*
%TD*%
D12*
%TO.C,R3*%
X31689800Y-55727600D03*
X33689800Y-55727600D03*
%TD*%
D11*
%TO.C,R1*%
X48006000Y-24895000D03*
X48006000Y-22095000D03*
%TD*%
D13*
%TO.C,SW1*%
X33850000Y-52705000D03*
X29650000Y-52705000D03*
%TD*%
D14*
%TO.C,C3*%
X69342000Y-24870500D03*
X69342000Y-26945500D03*
%TD*%
D15*
%TO.C,Q1*%
X71054000Y-44147500D03*
X69154000Y-44147500D03*
X70104000Y-46022500D03*
%TD*%
D16*
%TO.C,C5*%
X62995900Y-44729400D03*
X65070900Y-44729400D03*
%TD*%
D17*
%TO.C,U3*%
X67586400Y-33092400D03*
X66786400Y-33092400D03*
X65986400Y-33092400D03*
X65186400Y-33092400D03*
X64386400Y-33092400D03*
X63586400Y-33092400D03*
X62786400Y-33092400D03*
X61986400Y-33092400D03*
D18*
X60536400Y-34542400D03*
X60536400Y-35342400D03*
X60536400Y-36142400D03*
X60536400Y-36942400D03*
X60536400Y-37742400D03*
X60536400Y-38542400D03*
X60536400Y-39342400D03*
X60536400Y-40142400D03*
D17*
X61986400Y-41592400D03*
X62786400Y-41592400D03*
X63586400Y-41592400D03*
X64386400Y-41592400D03*
X65186400Y-41592400D03*
X65986400Y-41592400D03*
X66786400Y-41592400D03*
X67586400Y-41592400D03*
D18*
X69036400Y-40142400D03*
X69036400Y-39342400D03*
X69036400Y-38542400D03*
X69036400Y-37742400D03*
X69036400Y-36942400D03*
X69036400Y-36142400D03*
X69036400Y-35342400D03*
X69036400Y-34542400D03*
%TD*%
D19*
%TO.C,C1*%
X65807500Y-30607000D03*
X63732500Y-30607000D03*
%TD*%
M02*
