%TF.GenerationSoftware,KiCad,Pcbnew,(6.0.11)*%
%TF.CreationDate,2023-02-12T20:23:43+01:00*%
%TF.ProjectId,ParentsHob2HoodController,50617265-6e74-4734-986f-6232486f6f64,rev?*%
%TF.SameCoordinates,Original*%
%TF.FileFunction,Soldermask,Top*%
%TF.FilePolarity,Negative*%
%FSLAX46Y46*%
G04 Gerber Fmt 4.6, Leading zero omitted, Abs format (unit mm)*
G04 Created by KiCad (PCBNEW (6.0.11)) date 2023-02-12 20:23:43*
%MOMM*%
%LPD*%
G01*
G04 APERTURE LIST*
G04 Aperture macros list*
%AMRoundRect*
0 Rectangle with rounded corners*
0 $1 Rounding radius*
0 $2 $3 $4 $5 $6 $7 $8 $9 X,Y pos of 4 corners*
0 Add a 4 corners polygon primitive as box body*
4,1,4,$2,$3,$4,$5,$6,$7,$8,$9,$2,$3,0*
0 Add four circle primitives for the rounded corners*
1,1,$1+$1,$2,$3*
1,1,$1+$1,$4,$5*
1,1,$1+$1,$6,$7*
1,1,$1+$1,$8,$9*
0 Add four rect primitives between the rounded corners*
20,1,$1+$1,$2,$3,$4,$5,0*
20,1,$1+$1,$4,$5,$6,$7,0*
20,1,$1+$1,$6,$7,$8,$9,0*
20,1,$1+$1,$8,$9,$2,$3,0*%
G04 Aperture macros list end*
%ADD10C,5.600000*%
%ADD11RoundRect,0.250000X0.475000X-0.337500X0.475000X0.337500X-0.475000X0.337500X-0.475000X-0.337500X0*%
%ADD12RoundRect,0.250000X0.625000X-0.375000X0.625000X0.375000X-0.625000X0.375000X-0.625000X-0.375000X0*%
%ADD13RoundRect,0.250000X-0.350000X-0.450000X0.350000X-0.450000X0.350000X0.450000X-0.350000X0.450000X0*%
%ADD14R,1.700000X1.700000*%
%ADD15O,1.700000X1.700000*%
%ADD16R,1.200000X1.200000*%
%ADD17C,1.200000*%
%ADD18RoundRect,0.200000X0.200000X0.800000X-0.200000X0.800000X-0.200000X-0.800000X0.200000X-0.800000X0*%
%ADD19C,1.500000*%
%ADD20RoundRect,0.250000X-0.475000X0.337500X-0.475000X-0.337500X0.475000X-0.337500X0.475000X0.337500X0*%
%ADD21RoundRect,0.250000X-0.600000X0.600000X-0.600000X-0.600000X0.600000X-0.600000X0.600000X0.600000X0*%
%ADD22C,1.700000*%
%ADD23R,1.600000X1.600000*%
%ADD24O,1.600000X1.600000*%
%ADD25RoundRect,0.150000X-0.150000X0.587500X-0.150000X-0.587500X0.150000X-0.587500X0.150000X0.587500X0*%
%ADD26RoundRect,0.250000X-0.600000X-0.600000X0.600000X-0.600000X0.600000X0.600000X-0.600000X0.600000X0*%
%ADD27RoundRect,0.250000X-0.337500X-0.475000X0.337500X-0.475000X0.337500X0.475000X-0.337500X0.475000X0*%
%ADD28R,0.550000X1.600000*%
%ADD29R,1.600000X0.550000*%
%ADD30RoundRect,0.250000X0.337500X0.475000X-0.337500X0.475000X-0.337500X-0.475000X0.337500X-0.475000X0*%
%ADD31RoundRect,0.250000X0.600000X0.600000X-0.600000X0.600000X-0.600000X-0.600000X0.600000X-0.600000X0*%
%ADD32R,2.600000X2.600000*%
%ADD33C,2.600000*%
%ADD34C,0.800000*%
G04 APERTURE END LIST*
D10*
%TO.C,H1*%
X89408000Y-22352000D03*
%TD*%
D11*
%TO.C,C4*%
X54864000Y-26945500D03*
X54864000Y-24870500D03*
%TD*%
D12*
%TO.C,D1*%
X50673000Y-24895000D03*
X50673000Y-22095000D03*
%TD*%
D13*
%TO.C,R3*%
X31689800Y-55727600D03*
X33689800Y-55727600D03*
%TD*%
D14*
%TO.C,J6*%
X44577000Y-22230000D03*
D15*
X44577000Y-24770000D03*
%TD*%
D16*
%TO.C,C6*%
X59563000Y-44743401D03*
D17*
X59563000Y-46243401D03*
%TD*%
D12*
%TO.C,R1*%
X48006000Y-24895000D03*
X48006000Y-22095000D03*
%TD*%
D18*
%TO.C,SW1*%
X33850000Y-52705000D03*
X29650000Y-52705000D03*
%TD*%
D16*
%TO.C,C7*%
X58674000Y-30099000D03*
D17*
X57174000Y-30099000D03*
%TD*%
D19*
%TO.C,Y1*%
X64553000Y-24892000D03*
X59673000Y-24892000D03*
%TD*%
D20*
%TO.C,C3*%
X69342000Y-24870500D03*
X69342000Y-26945500D03*
%TD*%
D21*
%TO.C,J1*%
X51821000Y-57921500D03*
D22*
X51821000Y-60461500D03*
X49281000Y-57921500D03*
X49281000Y-60461500D03*
X46741000Y-57921500D03*
X46741000Y-60461500D03*
%TD*%
D23*
%TO.C,RN1*%
X80137000Y-26528000D03*
D24*
X80137000Y-29068000D03*
X80137000Y-31608000D03*
X80137000Y-34148000D03*
X80137000Y-36688000D03*
X80137000Y-39228000D03*
X80137000Y-41768000D03*
X80137000Y-44308000D03*
X80137000Y-46848000D03*
%TD*%
D10*
%TO.C,H3*%
X32004000Y-61468000D03*
%TD*%
D25*
%TO.C,Q1*%
X71054000Y-44147500D03*
X69154000Y-44147500D03*
X70104000Y-46022500D03*
%TD*%
D26*
%TO.C,J3*%
X88655500Y-31623000D03*
D22*
X91195500Y-31623000D03*
X88655500Y-34163000D03*
X91195500Y-34163000D03*
X88655500Y-36703000D03*
X91195500Y-36703000D03*
X88655500Y-39243000D03*
X91195500Y-39243000D03*
X88655500Y-41783000D03*
X91195500Y-41783000D03*
%TD*%
D27*
%TO.C,C5*%
X62995900Y-44729400D03*
X65070900Y-44729400D03*
%TD*%
D28*
%TO.C,U3*%
X67586400Y-33092400D03*
X66786400Y-33092400D03*
X65986400Y-33092400D03*
X65186400Y-33092400D03*
X64386400Y-33092400D03*
X63586400Y-33092400D03*
X62786400Y-33092400D03*
X61986400Y-33092400D03*
D29*
X60536400Y-34542400D03*
X60536400Y-35342400D03*
X60536400Y-36142400D03*
X60536400Y-36942400D03*
X60536400Y-37742400D03*
X60536400Y-38542400D03*
X60536400Y-39342400D03*
X60536400Y-40142400D03*
D28*
X61986400Y-41592400D03*
X62786400Y-41592400D03*
X63586400Y-41592400D03*
X64386400Y-41592400D03*
X65186400Y-41592400D03*
X65986400Y-41592400D03*
X66786400Y-41592400D03*
X67586400Y-41592400D03*
D29*
X69036400Y-40142400D03*
X69036400Y-39342400D03*
X69036400Y-38542400D03*
X69036400Y-37742400D03*
X69036400Y-36942400D03*
X69036400Y-36142400D03*
X69036400Y-35342400D03*
X69036400Y-34542400D03*
%TD*%
D30*
%TO.C,C1*%
X65807500Y-30607000D03*
X63732500Y-30607000D03*
%TD*%
D10*
%TO.C,H2*%
X32004000Y-22352000D03*
%TD*%
D31*
%TO.C,J2*%
X32771500Y-41783000D03*
D22*
X30231500Y-41783000D03*
X32771500Y-39243000D03*
X30231500Y-39243000D03*
X32771500Y-36703000D03*
X30231500Y-36703000D03*
X32771500Y-34163000D03*
X30231500Y-34163000D03*
X32771500Y-31623000D03*
X30231500Y-31623000D03*
%TD*%
D32*
%TO.C,J5*%
X81661000Y-59563000D03*
D33*
X86741000Y-59563000D03*
X91821000Y-59563000D03*
%TD*%
D23*
%TO.C,RN2*%
X40147000Y-26528000D03*
D24*
X40147000Y-29068000D03*
X40147000Y-31608000D03*
X40147000Y-34148000D03*
X40147000Y-36688000D03*
X40147000Y-39228000D03*
X40147000Y-41768000D03*
X40147000Y-44308000D03*
X40147000Y-46848000D03*
%TD*%
D14*
%TO.C,J7*%
X70891000Y-22073000D03*
D15*
X73431000Y-22073000D03*
X75971000Y-22073000D03*
X78511000Y-22073000D03*
X81051000Y-22073000D03*
X83591000Y-22073000D03*
%TD*%
D32*
%TO.C,J4*%
X66421000Y-59563000D03*
D33*
X71501000Y-59563000D03*
X76581000Y-59563000D03*
%TD*%
D34*
X31623000Y-57277000D03*
X52578000Y-22098000D03*
X63627000Y-28575000D03*
X49276000Y-51181000D03*
X61595000Y-43180000D03*
X49276000Y-50038000D03*
X62484000Y-36957000D03*
X68961000Y-33020000D03*
X63373000Y-48768000D03*
X69850000Y-29083000D03*
X69850000Y-30226000D03*
X77343000Y-25019000D03*
M02*
