M48
; DRILL file {KiCad (6.0.11)} date Sun 12 Feb 2023 08:23:43 PM CET
; FORMAT={-:-/ absolute / inch / decimal}
; #@! TF.CreationDate,2023-02-12T20:23:43+01:00
; #@! TF.GenerationSoftware,Kicad,Pcbnew,(6.0.11)
; #@! TF.FileFunction,Plated,1,2,PTH
FMAT,2
INCH
; #@! TA.AperFunction,Plated,PTH,ViaDrill
T1C0.0157
; #@! TA.AperFunction,Plated,PTH,ComponentDrill
T2C0.0236
; #@! TA.AperFunction,Plated,PTH,ComponentDrill
T3C0.0315
; #@! TA.AperFunction,Plated,PTH,ComponentDrill
T4C0.0394
; #@! TA.AperFunction,Plated,PTH,ComponentDrill
T5C0.0512
; #@! TA.AperFunction,Plated,PTH,ComponentDrill
T6C0.1260
%
G90
G05
T1
X1.245Y-2.255
X1.94Y-1.97
X1.94Y-2.015
X2.07Y-0.87
X2.425Y-1.7
X2.46Y-1.455
X2.495Y-1.92
X2.505Y-1.125
X2.715Y-1.3
X2.75Y-1.145
X2.75Y-1.19
X3.045Y-0.985
T2
X2.2509Y-1.185
X2.31Y-1.185
X2.345Y-1.7616
X2.345Y-1.8206
T3
X1.5806Y-1.0444
X1.5806Y-1.1444
X1.5806Y-1.2444
X1.5806Y-1.3444
X1.5806Y-1.4444
X1.5806Y-1.5444
X1.5806Y-1.6444
X1.5806Y-1.7444
X1.5806Y-1.8444
X2.3493Y-0.98
X2.5415Y-0.98
X3.155Y-1.0444
X3.155Y-1.1444
X3.155Y-1.2444
X3.155Y-1.3444
X3.155Y-1.4444
X3.155Y-1.5444
X3.155Y-1.6444
X3.155Y-1.7444
X3.155Y-1.8444
T4
X1.1902Y-1.245
X1.1902Y-1.345
X1.1902Y-1.445
X1.1902Y-1.545
X1.1902Y-1.645
X1.2902Y-1.245
X1.2902Y-1.345
X1.2902Y-1.445
X1.2902Y-1.545
X1.2902Y-1.645
X1.755Y-0.8752
X1.755Y-0.9752
X1.8402Y-2.2804
X1.8402Y-2.3804
X1.9402Y-2.2804
X1.9402Y-2.3804
X2.0402Y-2.2804
X2.0402Y-2.3804
X2.791Y-0.869
X2.891Y-0.869
X2.991Y-0.869
X3.091Y-0.869
X3.191Y-0.869
X3.291Y-0.869
X3.4904Y-1.245
X3.4904Y-1.345
X3.4904Y-1.445
X3.4904Y-1.545
X3.4904Y-1.645
X3.5904Y-1.245
X3.5904Y-1.345
X3.5904Y-1.445
X3.5904Y-1.545
X3.5904Y-1.645
T5
X2.615Y-2.345
X2.815Y-2.345
X3.015Y-2.345
X3.215Y-2.345
X3.415Y-2.345
X3.615Y-2.345
T6
X1.26Y-0.88
X1.26Y-2.42
X3.52Y-0.88
T0
M30
