%TF.GenerationSoftware,KiCad,Pcbnew,(6.0.11)*%
%TF.CreationDate,2023-02-12T20:23:43+01:00*%
%TF.ProjectId,ParentsHob2HoodController,50617265-6e74-4734-986f-6232486f6f64,rev?*%
%TF.SameCoordinates,Original*%
%TF.FileFunction,Legend,Top*%
%TF.FilePolarity,Positive*%
%FSLAX46Y46*%
G04 Gerber Fmt 4.6, Leading zero omitted, Abs format (unit mm)*
G04 Created by KiCad (PCBNEW (6.0.11)) date 2023-02-12 20:23:43*
%MOMM*%
%LPD*%
G01*
G04 APERTURE LIST*
G04 Aperture macros list*
%AMRoundRect*
0 Rectangle with rounded corners*
0 $1 Rounding radius*
0 $2 $3 $4 $5 $6 $7 $8 $9 X,Y pos of 4 corners*
0 Add a 4 corners polygon primitive as box body*
4,1,4,$2,$3,$4,$5,$6,$7,$8,$9,$2,$3,0*
0 Add four circle primitives for the rounded corners*
1,1,$1+$1,$2,$3*
1,1,$1+$1,$4,$5*
1,1,$1+$1,$6,$7*
1,1,$1+$1,$8,$9*
0 Add four rect primitives between the rounded corners*
20,1,$1+$1,$2,$3,$4,$5,0*
20,1,$1+$1,$4,$5,$6,$7,0*
20,1,$1+$1,$6,$7,$8,$9,0*
20,1,$1+$1,$8,$9,$2,$3,0*%
G04 Aperture macros list end*
%ADD10C,0.150000*%
%ADD11C,0.120000*%
%ADD12C,5.600000*%
%ADD13RoundRect,0.250000X0.475000X-0.337500X0.475000X0.337500X-0.475000X0.337500X-0.475000X-0.337500X0*%
%ADD14RoundRect,0.250000X0.625000X-0.375000X0.625000X0.375000X-0.625000X0.375000X-0.625000X-0.375000X0*%
%ADD15RoundRect,0.250000X-0.350000X-0.450000X0.350000X-0.450000X0.350000X0.450000X-0.350000X0.450000X0*%
%ADD16R,1.700000X1.700000*%
%ADD17O,1.700000X1.700000*%
%ADD18R,1.200000X1.200000*%
%ADD19C,1.200000*%
%ADD20RoundRect,0.200000X0.200000X0.800000X-0.200000X0.800000X-0.200000X-0.800000X0.200000X-0.800000X0*%
%ADD21C,1.500000*%
%ADD22RoundRect,0.250000X-0.475000X0.337500X-0.475000X-0.337500X0.475000X-0.337500X0.475000X0.337500X0*%
%ADD23RoundRect,0.250000X-0.600000X0.600000X-0.600000X-0.600000X0.600000X-0.600000X0.600000X0.600000X0*%
%ADD24C,1.700000*%
%ADD25R,1.600000X1.600000*%
%ADD26O,1.600000X1.600000*%
%ADD27RoundRect,0.150000X-0.150000X0.587500X-0.150000X-0.587500X0.150000X-0.587500X0.150000X0.587500X0*%
%ADD28RoundRect,0.250000X-0.600000X-0.600000X0.600000X-0.600000X0.600000X0.600000X-0.600000X0.600000X0*%
%ADD29RoundRect,0.250000X-0.337500X-0.475000X0.337500X-0.475000X0.337500X0.475000X-0.337500X0.475000X0*%
%ADD30R,0.550000X1.600000*%
%ADD31R,1.600000X0.550000*%
%ADD32RoundRect,0.250000X0.337500X0.475000X-0.337500X0.475000X-0.337500X-0.475000X0.337500X-0.475000X0*%
%ADD33RoundRect,0.250000X0.600000X0.600000X-0.600000X0.600000X-0.600000X-0.600000X0.600000X-0.600000X0*%
%ADD34R,2.600000X2.600000*%
%ADD35C,2.600000*%
%ADD36C,0.800000*%
G04 APERTURE END LIST*
D10*
X44529952Y-61936380D02*
X44529952Y-62650666D01*
X44482333Y-62793523D01*
X44387095Y-62888761D01*
X44244238Y-62936380D01*
X44149000Y-62936380D01*
X45482333Y-62936380D02*
X45006142Y-62936380D01*
X45006142Y-61936380D01*
X46387095Y-62841142D02*
X46339476Y-62888761D01*
X46196619Y-62936380D01*
X46101380Y-62936380D01*
X45958523Y-62888761D01*
X45863285Y-62793523D01*
X45815666Y-62698285D01*
X45768047Y-62507809D01*
X45768047Y-62364952D01*
X45815666Y-62174476D01*
X45863285Y-62079238D01*
X45958523Y-61984000D01*
X46101380Y-61936380D01*
X46196619Y-61936380D01*
X46339476Y-61984000D01*
X46387095Y-62031619D01*
X47101380Y-61936380D02*
X47101380Y-62650666D01*
X47053761Y-62793523D01*
X46958523Y-62888761D01*
X46815666Y-62936380D01*
X46720428Y-62936380D01*
X48053761Y-62936380D02*
X47577571Y-62936380D01*
X47577571Y-61936380D01*
X48958523Y-62841142D02*
X48910904Y-62888761D01*
X48768047Y-62936380D01*
X48672809Y-62936380D01*
X48529952Y-62888761D01*
X48434714Y-62793523D01*
X48387095Y-62698285D01*
X48339476Y-62507809D01*
X48339476Y-62364952D01*
X48387095Y-62174476D01*
X48434714Y-62079238D01*
X48529952Y-61984000D01*
X48672809Y-61936380D01*
X48768047Y-61936380D01*
X48910904Y-61984000D01*
X48958523Y-62031619D01*
X49672809Y-61936380D02*
X49672809Y-62650666D01*
X49625190Y-62793523D01*
X49529952Y-62888761D01*
X49387095Y-62936380D01*
X49291857Y-62936380D01*
X50625190Y-62936380D02*
X50149000Y-62936380D01*
X50149000Y-61936380D01*
X51529952Y-62841142D02*
X51482333Y-62888761D01*
X51339476Y-62936380D01*
X51244238Y-62936380D01*
X51101380Y-62888761D01*
X51006142Y-62793523D01*
X50958523Y-62698285D01*
X50910904Y-62507809D01*
X50910904Y-62364952D01*
X50958523Y-62174476D01*
X51006142Y-62079238D01*
X51101380Y-61984000D01*
X51244238Y-61936380D01*
X51339476Y-61936380D01*
X51482333Y-61984000D01*
X51529952Y-62031619D01*
X52244238Y-61936380D02*
X52244238Y-62650666D01*
X52196619Y-62793523D01*
X52101380Y-62888761D01*
X51958523Y-62936380D01*
X51863285Y-62936380D01*
X53196619Y-62936380D02*
X52720428Y-62936380D01*
X52720428Y-61936380D01*
X54101380Y-62841142D02*
X54053761Y-62888761D01*
X53910904Y-62936380D01*
X53815666Y-62936380D01*
X53672809Y-62888761D01*
X53577571Y-62793523D01*
X53529952Y-62698285D01*
X53482333Y-62507809D01*
X53482333Y-62364952D01*
X53529952Y-62174476D01*
X53577571Y-62079238D01*
X53672809Y-61984000D01*
X53815666Y-61936380D01*
X53910904Y-61936380D01*
X54053761Y-61984000D01*
X54101380Y-62031619D01*
X52165285Y-21008571D02*
X52736714Y-21008571D01*
X52451000Y-21294285D02*
X52451000Y-20722857D01*
X42903142Y-36731380D02*
X42903142Y-35731380D01*
X42903142Y-36207571D02*
X43474571Y-36207571D01*
X43474571Y-36731380D02*
X43474571Y-35731380D01*
X44093619Y-36731380D02*
X43998380Y-36683761D01*
X43950761Y-36636142D01*
X43903142Y-36540904D01*
X43903142Y-36255190D01*
X43950761Y-36159952D01*
X43998380Y-36112333D01*
X44093619Y-36064714D01*
X44236476Y-36064714D01*
X44331714Y-36112333D01*
X44379333Y-36159952D01*
X44426952Y-36255190D01*
X44426952Y-36540904D01*
X44379333Y-36636142D01*
X44331714Y-36683761D01*
X44236476Y-36731380D01*
X44093619Y-36731380D01*
X44855523Y-36731380D02*
X44855523Y-35731380D01*
X44855523Y-36112333D02*
X44950761Y-36064714D01*
X45141238Y-36064714D01*
X45236476Y-36112333D01*
X45284095Y-36159952D01*
X45331714Y-36255190D01*
X45331714Y-36540904D01*
X45284095Y-36636142D01*
X45236476Y-36683761D01*
X45141238Y-36731380D01*
X44950761Y-36731380D01*
X44855523Y-36683761D01*
X45712666Y-35826619D02*
X45760285Y-35779000D01*
X45855523Y-35731380D01*
X46093619Y-35731380D01*
X46188857Y-35779000D01*
X46236476Y-35826619D01*
X46284095Y-35921857D01*
X46284095Y-36017095D01*
X46236476Y-36159952D01*
X45665047Y-36731380D01*
X46284095Y-36731380D01*
X46712666Y-36731380D02*
X46712666Y-35731380D01*
X46712666Y-36207571D02*
X47284095Y-36207571D01*
X47284095Y-36731380D02*
X47284095Y-35731380D01*
X47903142Y-36731380D02*
X47807904Y-36683761D01*
X47760285Y-36636142D01*
X47712666Y-36540904D01*
X47712666Y-36255190D01*
X47760285Y-36159952D01*
X47807904Y-36112333D01*
X47903142Y-36064714D01*
X48046000Y-36064714D01*
X48141238Y-36112333D01*
X48188857Y-36159952D01*
X48236476Y-36255190D01*
X48236476Y-36540904D01*
X48188857Y-36636142D01*
X48141238Y-36683761D01*
X48046000Y-36731380D01*
X47903142Y-36731380D01*
X48807904Y-36731380D02*
X48712666Y-36683761D01*
X48665047Y-36636142D01*
X48617428Y-36540904D01*
X48617428Y-36255190D01*
X48665047Y-36159952D01*
X48712666Y-36112333D01*
X48807904Y-36064714D01*
X48950761Y-36064714D01*
X49046000Y-36112333D01*
X49093619Y-36159952D01*
X49141238Y-36255190D01*
X49141238Y-36540904D01*
X49093619Y-36636142D01*
X49046000Y-36683761D01*
X48950761Y-36731380D01*
X48807904Y-36731380D01*
X49998380Y-36731380D02*
X49998380Y-35731380D01*
X49998380Y-36683761D02*
X49903142Y-36731380D01*
X49712666Y-36731380D01*
X49617428Y-36683761D01*
X49569809Y-36636142D01*
X49522190Y-36540904D01*
X49522190Y-36255190D01*
X49569809Y-36159952D01*
X49617428Y-36112333D01*
X49712666Y-36064714D01*
X49903142Y-36064714D01*
X49998380Y-36112333D01*
X51807904Y-36636142D02*
X51760285Y-36683761D01*
X51617428Y-36731380D01*
X51522190Y-36731380D01*
X51379333Y-36683761D01*
X51284095Y-36588523D01*
X51236476Y-36493285D01*
X51188857Y-36302809D01*
X51188857Y-36159952D01*
X51236476Y-35969476D01*
X51284095Y-35874238D01*
X51379333Y-35779000D01*
X51522190Y-35731380D01*
X51617428Y-35731380D01*
X51760285Y-35779000D01*
X51807904Y-35826619D01*
X52379333Y-36731380D02*
X52284095Y-36683761D01*
X52236476Y-36636142D01*
X52188857Y-36540904D01*
X52188857Y-36255190D01*
X52236476Y-36159952D01*
X52284095Y-36112333D01*
X52379333Y-36064714D01*
X52522190Y-36064714D01*
X52617428Y-36112333D01*
X52665047Y-36159952D01*
X52712666Y-36255190D01*
X52712666Y-36540904D01*
X52665047Y-36636142D01*
X52617428Y-36683761D01*
X52522190Y-36731380D01*
X52379333Y-36731380D01*
X53141238Y-36064714D02*
X53141238Y-36731380D01*
X53141238Y-36159952D02*
X53188857Y-36112333D01*
X53284095Y-36064714D01*
X53426952Y-36064714D01*
X53522190Y-36112333D01*
X53569809Y-36207571D01*
X53569809Y-36731380D01*
X53903142Y-36064714D02*
X54284095Y-36064714D01*
X54046000Y-35731380D02*
X54046000Y-36588523D01*
X54093619Y-36683761D01*
X54188857Y-36731380D01*
X54284095Y-36731380D01*
X54617428Y-36731380D02*
X54617428Y-36064714D01*
X54617428Y-36255190D02*
X54665047Y-36159952D01*
X54712666Y-36112333D01*
X54807904Y-36064714D01*
X54903142Y-36064714D01*
X55379333Y-36731380D02*
X55284095Y-36683761D01*
X55236476Y-36636142D01*
X55188857Y-36540904D01*
X55188857Y-36255190D01*
X55236476Y-36159952D01*
X55284095Y-36112333D01*
X55379333Y-36064714D01*
X55522190Y-36064714D01*
X55617428Y-36112333D01*
X55665047Y-36159952D01*
X55712666Y-36255190D01*
X55712666Y-36540904D01*
X55665047Y-36636142D01*
X55617428Y-36683761D01*
X55522190Y-36731380D01*
X55379333Y-36731380D01*
X56284095Y-36731380D02*
X56188857Y-36683761D01*
X56141238Y-36588523D01*
X56141238Y-35731380D01*
X56807904Y-36731380D02*
X56712666Y-36683761D01*
X56665047Y-36588523D01*
X56665047Y-35731380D01*
X57569809Y-36683761D02*
X57474571Y-36731380D01*
X57284095Y-36731380D01*
X57188857Y-36683761D01*
X57141238Y-36588523D01*
X57141238Y-36207571D01*
X57188857Y-36112333D01*
X57284095Y-36064714D01*
X57474571Y-36064714D01*
X57569809Y-36112333D01*
X57617428Y-36207571D01*
X57617428Y-36302809D01*
X57141238Y-36398047D01*
X58046000Y-36731380D02*
X58046000Y-36064714D01*
X58046000Y-36255190D02*
X58093619Y-36159952D01*
X58141238Y-36112333D01*
X58236476Y-36064714D01*
X58331714Y-36064714D01*
X45688857Y-37436619D02*
X45736476Y-37389000D01*
X45831714Y-37341380D01*
X46069809Y-37341380D01*
X46165047Y-37389000D01*
X46212666Y-37436619D01*
X46260285Y-37531857D01*
X46260285Y-37627095D01*
X46212666Y-37769952D01*
X45641238Y-38341380D01*
X46260285Y-38341380D01*
X46879333Y-37341380D02*
X46974571Y-37341380D01*
X47069809Y-37389000D01*
X47117428Y-37436619D01*
X47165047Y-37531857D01*
X47212666Y-37722333D01*
X47212666Y-37960428D01*
X47165047Y-38150904D01*
X47117428Y-38246142D01*
X47069809Y-38293761D01*
X46974571Y-38341380D01*
X46879333Y-38341380D01*
X46784095Y-38293761D01*
X46736476Y-38246142D01*
X46688857Y-38150904D01*
X46641238Y-37960428D01*
X46641238Y-37722333D01*
X46688857Y-37531857D01*
X46736476Y-37436619D01*
X46784095Y-37389000D01*
X46879333Y-37341380D01*
X47593619Y-37436619D02*
X47641238Y-37389000D01*
X47736476Y-37341380D01*
X47974571Y-37341380D01*
X48069809Y-37389000D01*
X48117428Y-37436619D01*
X48165047Y-37531857D01*
X48165047Y-37627095D01*
X48117428Y-37769952D01*
X47546000Y-38341380D01*
X48165047Y-38341380D01*
X48498380Y-37341380D02*
X49117428Y-37341380D01*
X48784095Y-37722333D01*
X48926952Y-37722333D01*
X49022190Y-37769952D01*
X49069809Y-37817571D01*
X49117428Y-37912809D01*
X49117428Y-38150904D01*
X49069809Y-38246142D01*
X49022190Y-38293761D01*
X48926952Y-38341380D01*
X48641238Y-38341380D01*
X48546000Y-38293761D01*
X48498380Y-38246142D01*
X49546000Y-37960428D02*
X50307904Y-37960428D01*
X50974571Y-37341380D02*
X51069809Y-37341380D01*
X51165047Y-37389000D01*
X51212666Y-37436619D01*
X51260285Y-37531857D01*
X51307904Y-37722333D01*
X51307904Y-37960428D01*
X51260285Y-38150904D01*
X51212666Y-38246142D01*
X51165047Y-38293761D01*
X51069809Y-38341380D01*
X50974571Y-38341380D01*
X50879333Y-38293761D01*
X50831714Y-38246142D01*
X50784095Y-38150904D01*
X50736476Y-37960428D01*
X50736476Y-37722333D01*
X50784095Y-37531857D01*
X50831714Y-37436619D01*
X50879333Y-37389000D01*
X50974571Y-37341380D01*
X51688857Y-37436619D02*
X51736476Y-37389000D01*
X51831714Y-37341380D01*
X52069809Y-37341380D01*
X52165047Y-37389000D01*
X52212666Y-37436619D01*
X52260285Y-37531857D01*
X52260285Y-37627095D01*
X52212666Y-37769952D01*
X51641238Y-38341380D01*
X52260285Y-38341380D01*
X52688857Y-37960428D02*
X53450761Y-37960428D01*
X54117428Y-37341380D02*
X54212666Y-37341380D01*
X54307904Y-37389000D01*
X54355523Y-37436619D01*
X54403142Y-37531857D01*
X54450761Y-37722333D01*
X54450761Y-37960428D01*
X54403142Y-38150904D01*
X54355523Y-38246142D01*
X54307904Y-38293761D01*
X54212666Y-38341380D01*
X54117428Y-38341380D01*
X54022190Y-38293761D01*
X53974571Y-38246142D01*
X53926952Y-38150904D01*
X53879333Y-37960428D01*
X53879333Y-37722333D01*
X53926952Y-37531857D01*
X53974571Y-37436619D01*
X54022190Y-37389000D01*
X54117428Y-37341380D01*
X54926952Y-38341380D02*
X55117428Y-38341380D01*
X55212666Y-38293761D01*
X55260285Y-38246142D01*
X55355523Y-38103285D01*
X55403142Y-37912809D01*
X55403142Y-37531857D01*
X55355523Y-37436619D01*
X55307904Y-37389000D01*
X55212666Y-37341380D01*
X55022190Y-37341380D01*
X54926952Y-37389000D01*
X54879333Y-37436619D01*
X54831714Y-37531857D01*
X54831714Y-37769952D01*
X54879333Y-37865190D01*
X54926952Y-37912809D01*
X55022190Y-37960428D01*
X55212666Y-37960428D01*
X55307904Y-37912809D01*
X55355523Y-37865190D01*
X55403142Y-37769952D01*
X92924380Y-41449047D02*
X93638666Y-41449047D01*
X93781523Y-41496666D01*
X93876761Y-41591904D01*
X93924380Y-41734761D01*
X93924380Y-41830000D01*
X93924380Y-40496666D02*
X93924380Y-40972857D01*
X92924380Y-40972857D01*
X93829142Y-39591904D02*
X93876761Y-39639523D01*
X93924380Y-39782380D01*
X93924380Y-39877619D01*
X93876761Y-40020476D01*
X93781523Y-40115714D01*
X93686285Y-40163333D01*
X93495809Y-40210952D01*
X93352952Y-40210952D01*
X93162476Y-40163333D01*
X93067238Y-40115714D01*
X92972000Y-40020476D01*
X92924380Y-39877619D01*
X92924380Y-39782380D01*
X92972000Y-39639523D01*
X93019619Y-39591904D01*
X92924380Y-38877619D02*
X93638666Y-38877619D01*
X93781523Y-38925238D01*
X93876761Y-39020476D01*
X93924380Y-39163333D01*
X93924380Y-39258571D01*
X93924380Y-37925238D02*
X93924380Y-38401428D01*
X92924380Y-38401428D01*
X93829142Y-37020476D02*
X93876761Y-37068095D01*
X93924380Y-37210952D01*
X93924380Y-37306190D01*
X93876761Y-37449047D01*
X93781523Y-37544285D01*
X93686285Y-37591904D01*
X93495809Y-37639523D01*
X93352952Y-37639523D01*
X93162476Y-37591904D01*
X93067238Y-37544285D01*
X92972000Y-37449047D01*
X92924380Y-37306190D01*
X92924380Y-37210952D01*
X92972000Y-37068095D01*
X93019619Y-37020476D01*
X92924380Y-36306190D02*
X93638666Y-36306190D01*
X93781523Y-36353809D01*
X93876761Y-36449047D01*
X93924380Y-36591904D01*
X93924380Y-36687142D01*
X93924380Y-35353809D02*
X93924380Y-35830000D01*
X92924380Y-35830000D01*
X93829142Y-34449047D02*
X93876761Y-34496666D01*
X93924380Y-34639523D01*
X93924380Y-34734761D01*
X93876761Y-34877619D01*
X93781523Y-34972857D01*
X93686285Y-35020476D01*
X93495809Y-35068095D01*
X93352952Y-35068095D01*
X93162476Y-35020476D01*
X93067238Y-34972857D01*
X92972000Y-34877619D01*
X92924380Y-34734761D01*
X92924380Y-34639523D01*
X92972000Y-34496666D01*
X93019619Y-34449047D01*
X92924380Y-33734761D02*
X93638666Y-33734761D01*
X93781523Y-33782380D01*
X93876761Y-33877619D01*
X93924380Y-34020476D01*
X93924380Y-34115714D01*
X93924380Y-32782380D02*
X93924380Y-33258571D01*
X92924380Y-33258571D01*
X93829142Y-31877619D02*
X93876761Y-31925238D01*
X93924380Y-32068095D01*
X93924380Y-32163333D01*
X93876761Y-32306190D01*
X93781523Y-32401428D01*
X93686285Y-32449047D01*
X93495809Y-32496666D01*
X93352952Y-32496666D01*
X93162476Y-32449047D01*
X93067238Y-32401428D01*
X92972000Y-32306190D01*
X92924380Y-32163333D01*
X92924380Y-32068095D01*
X92972000Y-31925238D01*
X93019619Y-31877619D01*
%TO.C,C4*%
X53570142Y-26074666D02*
X53617761Y-26122285D01*
X53665380Y-26265142D01*
X53665380Y-26360380D01*
X53617761Y-26503238D01*
X53522523Y-26598476D01*
X53427285Y-26646095D01*
X53236809Y-26693714D01*
X53093952Y-26693714D01*
X52903476Y-26646095D01*
X52808238Y-26598476D01*
X52713000Y-26503238D01*
X52665380Y-26360380D01*
X52665380Y-26265142D01*
X52713000Y-26122285D01*
X52760619Y-26074666D01*
X52998714Y-25217523D02*
X53665380Y-25217523D01*
X52617761Y-25455619D02*
X53332047Y-25693714D01*
X53332047Y-25074666D01*
%TO.C,D1*%
X49934904Y-26995380D02*
X49934904Y-25995380D01*
X50173000Y-25995380D01*
X50315857Y-26043000D01*
X50411095Y-26138238D01*
X50458714Y-26233476D01*
X50506333Y-26423952D01*
X50506333Y-26566809D01*
X50458714Y-26757285D01*
X50411095Y-26852523D01*
X50315857Y-26947761D01*
X50173000Y-26995380D01*
X49934904Y-26995380D01*
X51458714Y-26995380D02*
X50887285Y-26995380D01*
X51173000Y-26995380D02*
X51173000Y-25995380D01*
X51077761Y-26138238D01*
X50982523Y-26233476D01*
X50887285Y-26281095D01*
%TO.C,R3*%
X30475180Y-55894266D02*
X29998990Y-56227600D01*
X30475180Y-56465695D02*
X29475180Y-56465695D01*
X29475180Y-56084742D01*
X29522800Y-55989504D01*
X29570419Y-55941885D01*
X29665657Y-55894266D01*
X29808514Y-55894266D01*
X29903752Y-55941885D01*
X29951371Y-55989504D01*
X29998990Y-56084742D01*
X29998990Y-56465695D01*
X29475180Y-55560933D02*
X29475180Y-54941885D01*
X29856133Y-55275219D01*
X29856133Y-55132361D01*
X29903752Y-55037123D01*
X29951371Y-54989504D01*
X30046609Y-54941885D01*
X30284704Y-54941885D01*
X30379942Y-54989504D01*
X30427561Y-55037123D01*
X30475180Y-55132361D01*
X30475180Y-55418076D01*
X30427561Y-55513314D01*
X30379942Y-55560933D01*
%TO.C,C6*%
X59396333Y-48783543D02*
X59348714Y-48831162D01*
X59205857Y-48878781D01*
X59110619Y-48878781D01*
X58967761Y-48831162D01*
X58872523Y-48735924D01*
X58824904Y-48640686D01*
X58777285Y-48450210D01*
X58777285Y-48307353D01*
X58824904Y-48116877D01*
X58872523Y-48021639D01*
X58967761Y-47926401D01*
X59110619Y-47878781D01*
X59205857Y-47878781D01*
X59348714Y-47926401D01*
X59396333Y-47974020D01*
X60253476Y-47878781D02*
X60063000Y-47878781D01*
X59967761Y-47926401D01*
X59920142Y-47974020D01*
X59824904Y-48116877D01*
X59777285Y-48307353D01*
X59777285Y-48688305D01*
X59824904Y-48783543D01*
X59872523Y-48831162D01*
X59967761Y-48878781D01*
X60158238Y-48878781D01*
X60253476Y-48831162D01*
X60301095Y-48783543D01*
X60348714Y-48688305D01*
X60348714Y-48450210D01*
X60301095Y-48354972D01*
X60253476Y-48307353D01*
X60158238Y-48259734D01*
X59967761Y-48259734D01*
X59872523Y-48307353D01*
X59824904Y-48354972D01*
X59777285Y-48450210D01*
%TO.C,R1*%
X47839333Y-26995380D02*
X47506000Y-26519190D01*
X47267904Y-26995380D02*
X47267904Y-25995380D01*
X47648857Y-25995380D01*
X47744095Y-26043000D01*
X47791714Y-26090619D01*
X47839333Y-26185857D01*
X47839333Y-26328714D01*
X47791714Y-26423952D01*
X47744095Y-26471571D01*
X47648857Y-26519190D01*
X47267904Y-26519190D01*
X48791714Y-26995380D02*
X48220285Y-26995380D01*
X48506000Y-26995380D02*
X48506000Y-25995380D01*
X48410761Y-26138238D01*
X48315523Y-26233476D01*
X48220285Y-26281095D01*
%TO.C,C7*%
X55348142Y-30265666D02*
X55395761Y-30313285D01*
X55443380Y-30456142D01*
X55443380Y-30551380D01*
X55395761Y-30694238D01*
X55300523Y-30789476D01*
X55205285Y-30837095D01*
X55014809Y-30884714D01*
X54871952Y-30884714D01*
X54681476Y-30837095D01*
X54586238Y-30789476D01*
X54491000Y-30694238D01*
X54443380Y-30551380D01*
X54443380Y-30456142D01*
X54491000Y-30313285D01*
X54538619Y-30265666D01*
X54443380Y-29932333D02*
X54443380Y-29265666D01*
X55443380Y-29694238D01*
%TO.C,Y1*%
X61636809Y-21312190D02*
X61636809Y-21788380D01*
X61303476Y-20788380D02*
X61636809Y-21312190D01*
X61970142Y-20788380D01*
X62827285Y-21788380D02*
X62255857Y-21788380D01*
X62541571Y-21788380D02*
X62541571Y-20788380D01*
X62446333Y-20931238D01*
X62351095Y-21026476D01*
X62255857Y-21074095D01*
%TO.C,C3*%
X71477142Y-26074666D02*
X71524761Y-26122285D01*
X71572380Y-26265142D01*
X71572380Y-26360380D01*
X71524761Y-26503238D01*
X71429523Y-26598476D01*
X71334285Y-26646095D01*
X71143809Y-26693714D01*
X71000952Y-26693714D01*
X70810476Y-26646095D01*
X70715238Y-26598476D01*
X70620000Y-26503238D01*
X70572380Y-26360380D01*
X70572380Y-26265142D01*
X70620000Y-26122285D01*
X70667619Y-26074666D01*
X70572380Y-25741333D02*
X70572380Y-25122285D01*
X70953333Y-25455619D01*
X70953333Y-25312761D01*
X71000952Y-25217523D01*
X71048571Y-25169904D01*
X71143809Y-25122285D01*
X71381904Y-25122285D01*
X71477142Y-25169904D01*
X71524761Y-25217523D01*
X71572380Y-25312761D01*
X71572380Y-25598476D01*
X71524761Y-25693714D01*
X71477142Y-25741333D01*
%TO.C,RN1*%
X79319523Y-49855380D02*
X78986190Y-49379190D01*
X78748095Y-49855380D02*
X78748095Y-48855380D01*
X79129047Y-48855380D01*
X79224285Y-48903000D01*
X79271904Y-48950619D01*
X79319523Y-49045857D01*
X79319523Y-49188714D01*
X79271904Y-49283952D01*
X79224285Y-49331571D01*
X79129047Y-49379190D01*
X78748095Y-49379190D01*
X79748095Y-49855380D02*
X79748095Y-48855380D01*
X80319523Y-49855380D01*
X80319523Y-48855380D01*
X81319523Y-49855380D02*
X80748095Y-49855380D01*
X81033809Y-49855380D02*
X81033809Y-48855380D01*
X80938571Y-48998238D01*
X80843333Y-49093476D01*
X80748095Y-49141095D01*
%TO.C,Q1*%
X69246761Y-48426619D02*
X69151523Y-48379000D01*
X69056285Y-48283761D01*
X68913428Y-48140904D01*
X68818190Y-48093285D01*
X68722952Y-48093285D01*
X68770571Y-48331380D02*
X68675333Y-48283761D01*
X68580095Y-48188523D01*
X68532476Y-47998047D01*
X68532476Y-47664714D01*
X68580095Y-47474238D01*
X68675333Y-47379000D01*
X68770571Y-47331380D01*
X68961047Y-47331380D01*
X69056285Y-47379000D01*
X69151523Y-47474238D01*
X69199142Y-47664714D01*
X69199142Y-47998047D01*
X69151523Y-48188523D01*
X69056285Y-48283761D01*
X68961047Y-48331380D01*
X68770571Y-48331380D01*
X70151523Y-48331380D02*
X69580095Y-48331380D01*
X69865809Y-48331380D02*
X69865809Y-47331380D01*
X69770571Y-47474238D01*
X69675333Y-47569476D01*
X69580095Y-47617095D01*
%TO.C,C5*%
X67057542Y-44896066D02*
X67105161Y-44943685D01*
X67152780Y-45086542D01*
X67152780Y-45181780D01*
X67105161Y-45324638D01*
X67009923Y-45419876D01*
X66914685Y-45467495D01*
X66724209Y-45515114D01*
X66581352Y-45515114D01*
X66390876Y-45467495D01*
X66295638Y-45419876D01*
X66200400Y-45324638D01*
X66152780Y-45181780D01*
X66152780Y-45086542D01*
X66200400Y-44943685D01*
X66248019Y-44896066D01*
X66152780Y-43991304D02*
X66152780Y-44467495D01*
X66628971Y-44515114D01*
X66581352Y-44467495D01*
X66533733Y-44372257D01*
X66533733Y-44134161D01*
X66581352Y-44038923D01*
X66628971Y-43991304D01*
X66724209Y-43943685D01*
X66962304Y-43943685D01*
X67057542Y-43991304D01*
X67105161Y-44038923D01*
X67152780Y-44134161D01*
X67152780Y-44372257D01*
X67105161Y-44467495D01*
X67057542Y-44515114D01*
%TO.C,U3*%
X58253380Y-34035904D02*
X59062904Y-34035904D01*
X59158142Y-33988285D01*
X59205761Y-33940666D01*
X59253380Y-33845428D01*
X59253380Y-33654952D01*
X59205761Y-33559714D01*
X59158142Y-33512095D01*
X59062904Y-33464476D01*
X58253380Y-33464476D01*
X58253380Y-33083523D02*
X58253380Y-32464476D01*
X58634333Y-32797809D01*
X58634333Y-32654952D01*
X58681952Y-32559714D01*
X58729571Y-32512095D01*
X58824809Y-32464476D01*
X59062904Y-32464476D01*
X59158142Y-32512095D01*
X59205761Y-32559714D01*
X59253380Y-32654952D01*
X59253380Y-32940666D01*
X59205761Y-33035904D01*
X59158142Y-33083523D01*
%TO.C,C1*%
X67667142Y-30773666D02*
X67714761Y-30821285D01*
X67762380Y-30964142D01*
X67762380Y-31059380D01*
X67714761Y-31202238D01*
X67619523Y-31297476D01*
X67524285Y-31345095D01*
X67333809Y-31392714D01*
X67190952Y-31392714D01*
X67000476Y-31345095D01*
X66905238Y-31297476D01*
X66810000Y-31202238D01*
X66762380Y-31059380D01*
X66762380Y-30964142D01*
X66810000Y-30821285D01*
X66857619Y-30773666D01*
X67762380Y-29821285D02*
X67762380Y-30392714D01*
X67762380Y-30107000D02*
X66762380Y-30107000D01*
X66905238Y-30202238D01*
X67000476Y-30297476D01*
X67048095Y-30392714D01*
%TO.C,RN2*%
X39456523Y-24567380D02*
X39123190Y-24091190D01*
X38885095Y-24567380D02*
X38885095Y-23567380D01*
X39266047Y-23567380D01*
X39361285Y-23615000D01*
X39408904Y-23662619D01*
X39456523Y-23757857D01*
X39456523Y-23900714D01*
X39408904Y-23995952D01*
X39361285Y-24043571D01*
X39266047Y-24091190D01*
X38885095Y-24091190D01*
X39885095Y-24567380D02*
X39885095Y-23567380D01*
X40456523Y-24567380D01*
X40456523Y-23567380D01*
X40885095Y-23662619D02*
X40932714Y-23615000D01*
X41027952Y-23567380D01*
X41266047Y-23567380D01*
X41361285Y-23615000D01*
X41408904Y-23662619D01*
X41456523Y-23757857D01*
X41456523Y-23853095D01*
X41408904Y-23995952D01*
X40837476Y-24567380D01*
X41456523Y-24567380D01*
D11*
%TO.C,C4*%
X54129000Y-26169252D02*
X54129000Y-25646748D01*
X55599000Y-26169252D02*
X55599000Y-25646748D01*
%TO.C,D1*%
X51808000Y-25780000D02*
X51808000Y-21895000D01*
X49538000Y-25780000D02*
X51808000Y-25780000D01*
X49538000Y-21895000D02*
X49538000Y-25780000D01*
%TO.C,R3*%
X32462736Y-56462600D02*
X32916864Y-56462600D01*
X32462736Y-54992600D02*
X32916864Y-54992600D01*
%TO.C,J6*%
X43247000Y-22230000D02*
X43247000Y-20900000D01*
X43247000Y-23500000D02*
X45907000Y-23500000D01*
X45907000Y-23500000D02*
X45907000Y-26100000D01*
X43247000Y-23500000D02*
X43247000Y-26100000D01*
X43247000Y-20900000D02*
X44577000Y-20900000D01*
X43247000Y-26100000D02*
X45907000Y-26100000D01*
%TO.C,C6*%
X58723000Y-46454401D02*
X57712000Y-46454401D01*
X58723000Y-45933401D02*
X57529000Y-45933401D01*
X60758000Y-43223600D02*
X60758000Y-43623600D01*
X61643000Y-45493401D02*
X60403000Y-45493401D01*
X61470000Y-46334401D02*
X60403000Y-46334401D01*
X61588000Y-45973401D02*
X60403000Y-45973401D01*
X60958000Y-43423600D02*
X60558000Y-43423600D01*
X61115000Y-46894401D02*
X60403000Y-46894401D01*
X61605000Y-45893401D02*
X60403000Y-45893401D01*
X58723000Y-46734401D02*
X57883000Y-46734401D01*
X61348000Y-46574401D02*
X60403000Y-46574401D01*
X58723000Y-46133401D02*
X57581000Y-46133401D01*
X60959000Y-47054401D02*
X60403000Y-47054401D01*
X58723000Y-46093401D02*
X57569000Y-46093401D01*
X61271000Y-46694401D02*
X60403000Y-46694401D01*
X58723000Y-45493401D02*
X57483000Y-45493401D01*
X58723000Y-46934401D02*
X58047000Y-46934401D01*
X61414000Y-46454401D02*
X60403000Y-46454401D01*
X58723000Y-46053401D02*
X57558000Y-46053401D01*
X58723000Y-45613401D02*
X57486000Y-45613401D01*
X61642000Y-45573401D02*
X60403000Y-45573401D01*
X61637000Y-45653401D02*
X60403000Y-45653401D01*
X58723000Y-47014401D02*
X58125000Y-47014401D01*
X58723000Y-45853401D02*
X57513000Y-45853401D01*
X60422000Y-47414401D02*
X58704000Y-47414401D01*
X60643000Y-47294401D02*
X58483000Y-47294401D01*
X60914000Y-47094401D02*
X58212000Y-47094401D01*
X60100000Y-47534401D02*
X59026000Y-47534401D01*
X58723000Y-45893401D02*
X57521000Y-45893401D01*
X61503000Y-46254401D02*
X60403000Y-46254401D01*
X58723000Y-46814401D02*
X57944000Y-46814401D01*
X61323000Y-46614401D02*
X60403000Y-46614401D01*
X58723000Y-46294401D02*
X57639000Y-46294401D01*
X58723000Y-45973401D02*
X57538000Y-45973401D01*
X58723000Y-46214401D02*
X57609000Y-46214401D01*
X61625000Y-45773401D02*
X60403000Y-45773401D01*
X60331000Y-47454401D02*
X58795000Y-47454401D01*
X58723000Y-46534401D02*
X57755000Y-46534401D01*
X61557000Y-46093401D02*
X60403000Y-46093401D01*
X61579000Y-46013401D02*
X60403000Y-46013401D01*
X58723000Y-46574401D02*
X57778000Y-46574401D01*
X58723000Y-46774401D02*
X57913000Y-46774401D01*
X58723000Y-45813401D02*
X57507000Y-45813401D01*
X61150000Y-46854401D02*
X60403000Y-46854401D01*
X61298000Y-46654401D02*
X60403000Y-46654401D01*
X61243000Y-46734401D02*
X60403000Y-46734401D01*
X61545000Y-46133401D02*
X60403000Y-46133401D01*
X61182000Y-46814401D02*
X60403000Y-46814401D01*
X61393000Y-46494401D02*
X60403000Y-46494401D01*
X61213000Y-46774401D02*
X60403000Y-46774401D01*
X58723000Y-45693401D02*
X57492000Y-45693401D01*
X61452000Y-46374401D02*
X60403000Y-46374401D01*
X58723000Y-46414401D02*
X57693000Y-46414401D01*
X61643000Y-45533401D02*
X60403000Y-45533401D01*
X61597000Y-45933401D02*
X60403000Y-45933401D01*
X61634000Y-45693401D02*
X60403000Y-45693401D01*
X60503000Y-47374401D02*
X58623000Y-47374401D01*
X61613000Y-45853401D02*
X60403000Y-45853401D01*
X58723000Y-45573401D02*
X57484000Y-45573401D01*
X58723000Y-46894401D02*
X58011000Y-46894401D01*
X61517000Y-46214401D02*
X60403000Y-46214401D01*
X58723000Y-46173401D02*
X57595000Y-46173401D01*
X60576000Y-47334401D02*
X58550000Y-47334401D01*
X60763000Y-47214401D02*
X58363000Y-47214401D01*
X58723000Y-46854401D02*
X57976000Y-46854401D01*
X61630000Y-45733401D02*
X60403000Y-45733401D01*
X58723000Y-46374401D02*
X57674000Y-46374401D01*
X61041000Y-46974401D02*
X60403000Y-46974401D01*
X58723000Y-46334401D02*
X57656000Y-46334401D01*
X58723000Y-46013401D02*
X57547000Y-46013401D01*
X58723000Y-45733401D02*
X57496000Y-45733401D01*
X61487000Y-46294401D02*
X60403000Y-46294401D01*
X58723000Y-46694401D02*
X57855000Y-46694401D01*
X61371000Y-46534401D02*
X60403000Y-46534401D01*
X58723000Y-45773401D02*
X57501000Y-45773401D01*
X58723000Y-47054401D02*
X58167000Y-47054401D01*
X58723000Y-46254401D02*
X57623000Y-46254401D01*
X59933000Y-47574401D02*
X59193000Y-47574401D01*
X58723000Y-46494401D02*
X57733000Y-46494401D01*
X61568000Y-46053401D02*
X60403000Y-46053401D01*
X61531000Y-46173401D02*
X60403000Y-46173401D01*
X61079000Y-46934401D02*
X60403000Y-46934401D01*
X61433000Y-46414401D02*
X60403000Y-46414401D01*
X58723000Y-46974401D02*
X58085000Y-46974401D01*
X60227000Y-47494401D02*
X58899000Y-47494401D01*
X61619000Y-45813401D02*
X60403000Y-45813401D01*
X60867000Y-47134401D02*
X58259000Y-47134401D01*
X58723000Y-45653401D02*
X57489000Y-45653401D01*
X60705000Y-47254401D02*
X58421000Y-47254401D01*
X58723000Y-46654401D02*
X57828000Y-46654401D01*
X61001000Y-47014401D02*
X60403000Y-47014401D01*
X61640000Y-45613401D02*
X60403000Y-45613401D01*
X60817000Y-47174401D02*
X58309000Y-47174401D01*
X58723000Y-45533401D02*
X57483000Y-45533401D01*
X58723000Y-46614401D02*
X57803000Y-46614401D01*
X61683000Y-45493401D02*
G75*
G03*
X61683000Y-45493401I-2120000J0D01*
G01*
%TO.C,kibuzzard-63DC4623*%
G36*
X30200997Y-49720302D02*
G01*
X30260925Y-49757806D01*
X30296644Y-49822298D01*
X30308550Y-49915762D01*
X30295850Y-50013394D01*
X30257750Y-50077687D01*
X30189487Y-50113406D01*
X30086300Y-50125313D01*
X30024388Y-50125313D01*
X30024388Y-49720500D01*
X30116463Y-49707800D01*
X30200997Y-49720302D01*
G37*
G36*
X29173127Y-50954928D02*
G01*
X29096075Y-50943498D01*
X29020514Y-50924571D01*
X28947173Y-50898329D01*
X28876757Y-50865025D01*
X28809944Y-50824979D01*
X28747378Y-50778577D01*
X28709711Y-50744437D01*
X29846587Y-50744437D01*
X30024388Y-50744437D01*
X30024388Y-50263425D01*
X30086300Y-50263425D01*
X30182344Y-50294381D01*
X30212705Y-50339030D01*
X30238700Y-50411063D01*
X30330775Y-50744437D01*
X30513338Y-50744437D01*
X30672087Y-50744437D01*
X31227712Y-50744437D01*
X31227712Y-50606325D01*
X30849888Y-50606325D01*
X30849888Y-50188812D01*
X31211838Y-50188812D01*
X31211838Y-50053875D01*
X30849888Y-50053875D01*
X30849888Y-49871312D01*
X31438850Y-49871312D01*
X31455320Y-49984025D01*
X31504731Y-50077687D01*
X31559324Y-50132721D01*
X31635259Y-50185638D01*
X31732538Y-50236438D01*
X31800602Y-50277316D01*
X31846044Y-50323750D01*
X31871642Y-50380106D01*
X31880175Y-50450750D01*
X31869063Y-50524767D01*
X31835725Y-50578544D01*
X31782544Y-50611286D01*
X31711900Y-50622200D01*
X31618943Y-50610735D01*
X31530572Y-50576339D01*
X31446787Y-50519012D01*
X31446787Y-50684113D01*
X31528279Y-50726446D01*
X31618238Y-50751846D01*
X31716663Y-50760312D01*
X31839535Y-50747612D01*
X31847499Y-50744437D01*
X32259588Y-50744437D01*
X32815213Y-50744437D01*
X32815213Y-50606325D01*
X32437388Y-50606325D01*
X32437388Y-50188812D01*
X32799338Y-50188812D01*
X32799338Y-50053875D01*
X32437388Y-50053875D01*
X32437388Y-49723675D01*
X32815213Y-49723675D01*
X33002538Y-49723675D01*
X33239075Y-49723675D01*
X33239075Y-50744437D01*
X33416875Y-50744437D01*
X33416875Y-49723675D01*
X33653413Y-49723675D01*
X33653413Y-49585563D01*
X33002538Y-49585563D01*
X33002538Y-49723675D01*
X32815213Y-49723675D01*
X32815213Y-49585563D01*
X32259588Y-49585563D01*
X32259588Y-50744437D01*
X31847499Y-50744437D01*
X31935103Y-50709512D01*
X32003365Y-50646013D01*
X32044322Y-50557112D01*
X32057975Y-50442812D01*
X32040909Y-50320178D01*
X31989713Y-50222150D01*
X31931681Y-50165529D01*
X31848601Y-50109967D01*
X31740475Y-50055462D01*
X31669919Y-50008014D01*
X31627586Y-49943985D01*
X31613475Y-49863375D01*
X31624587Y-49798287D01*
X31657925Y-49749075D01*
X31710709Y-49718119D01*
X31780163Y-49707800D01*
X31903591Y-49724866D01*
X32026225Y-49776062D01*
X32026225Y-49617312D01*
X31940853Y-49590854D01*
X31851953Y-49574979D01*
X31759525Y-49569687D01*
X31664716Y-49578507D01*
X31585606Y-49604965D01*
X31522194Y-49649063D01*
X31459686Y-49744312D01*
X31438850Y-49871312D01*
X30849888Y-49871312D01*
X30849888Y-49723675D01*
X31227712Y-49723675D01*
X31227712Y-49585563D01*
X30672087Y-49585563D01*
X30672087Y-50744437D01*
X30513338Y-50744437D01*
X30414913Y-50420587D01*
X30364112Y-50295969D01*
X30303787Y-50217387D01*
X30303787Y-50214212D01*
X30381575Y-50168770D01*
X30437137Y-50103881D01*
X30470475Y-50019545D01*
X30481587Y-49915762D01*
X30471798Y-49806842D01*
X30442429Y-49719265D01*
X30393481Y-49653031D01*
X30323543Y-49606729D01*
X30231203Y-49578948D01*
X30116463Y-49569687D01*
X30025093Y-49573215D01*
X29935135Y-49583799D01*
X29846587Y-49601437D01*
X29846587Y-50744437D01*
X28709711Y-50744437D01*
X28689662Y-50726266D01*
X28637351Y-50668550D01*
X28590949Y-50605984D01*
X28550903Y-50539171D01*
X28517598Y-50468755D01*
X28491356Y-50395413D01*
X28472429Y-50319853D01*
X28461000Y-50242801D01*
X28457178Y-50165000D01*
X28461000Y-50087199D01*
X28472429Y-50010147D01*
X28491356Y-49934587D01*
X28517598Y-49861245D01*
X28550903Y-49790829D01*
X28590949Y-49724016D01*
X28637351Y-49661450D01*
X28689662Y-49603734D01*
X28747378Y-49551423D01*
X28809944Y-49505021D01*
X28876757Y-49464975D01*
X28947173Y-49431671D01*
X29020514Y-49405429D01*
X29096075Y-49386502D01*
X29173127Y-49375072D01*
X29250928Y-49371250D01*
X34249072Y-49371250D01*
X34326873Y-49375072D01*
X34403925Y-49386502D01*
X34479486Y-49405429D01*
X34552827Y-49431671D01*
X34623243Y-49464975D01*
X34690056Y-49505021D01*
X34752622Y-49551423D01*
X34810338Y-49603734D01*
X34862649Y-49661450D01*
X34909051Y-49724016D01*
X34949097Y-49790829D01*
X34982402Y-49861245D01*
X35008644Y-49934587D01*
X35027571Y-50010147D01*
X35039000Y-50087199D01*
X35042822Y-50165000D01*
X35039000Y-50242801D01*
X35027571Y-50319853D01*
X35008644Y-50395413D01*
X34982402Y-50468755D01*
X34949097Y-50539171D01*
X34909051Y-50605984D01*
X34862649Y-50668550D01*
X34810338Y-50726266D01*
X34752622Y-50778577D01*
X34690056Y-50824979D01*
X34623243Y-50865025D01*
X34552827Y-50898329D01*
X34479486Y-50924571D01*
X34403925Y-50943498D01*
X34326873Y-50954928D01*
X34249072Y-50958750D01*
X29250928Y-50958750D01*
X29173127Y-50954928D01*
G37*
%TO.C,R1*%
X46871000Y-25780000D02*
X49141000Y-25780000D01*
X49141000Y-25780000D02*
X49141000Y-21895000D01*
X46871000Y-21895000D02*
X46871000Y-25780000D01*
%TO.C,SW1*%
X33820000Y-54275000D02*
X29680000Y-54275000D01*
X33820000Y-51135000D02*
X33820000Y-51435000D01*
X29680000Y-51435000D02*
X29680000Y-51135000D01*
X29680000Y-51135000D02*
X33820000Y-51135000D01*
X33820000Y-53975000D02*
X33820000Y-54275000D01*
X29680000Y-54275000D02*
X29680000Y-53975000D01*
%TO.C,C7*%
X57244000Y-29259000D02*
X57244000Y-28131000D01*
X56563000Y-29259000D02*
X56563000Y-28512000D01*
X57844000Y-32178000D02*
X57844000Y-30939000D01*
X57644000Y-29259000D02*
X57644000Y-28037000D01*
X57083000Y-32006000D02*
X57083000Y-30939000D01*
X56443000Y-29259000D02*
X56443000Y-28621000D01*
X57484000Y-32133000D02*
X57484000Y-30939000D01*
X57003000Y-29259000D02*
X57003000Y-28229000D01*
X57364000Y-32104000D02*
X57364000Y-30939000D01*
X57484000Y-29259000D02*
X57484000Y-28065000D01*
X55883000Y-30636000D02*
X55883000Y-29562000D01*
X56963000Y-29259000D02*
X56963000Y-28248000D01*
X57884000Y-29259000D02*
X57884000Y-28019000D01*
X56923000Y-31929000D02*
X56923000Y-30939000D01*
X56083000Y-31112000D02*
X56083000Y-29086000D01*
X57684000Y-29259000D02*
X57684000Y-28032000D01*
X57804000Y-29259000D02*
X57804000Y-28022000D01*
X56843000Y-31884000D02*
X56843000Y-30939000D01*
X57804000Y-32176000D02*
X57804000Y-30939000D01*
X56483000Y-29259000D02*
X56483000Y-28583000D01*
X57884000Y-32179000D02*
X57884000Y-30939000D01*
X57404000Y-29259000D02*
X57404000Y-28083000D01*
X56683000Y-29259000D02*
X56683000Y-28419000D01*
X56523000Y-31651000D02*
X56523000Y-30939000D01*
X57724000Y-32170000D02*
X57724000Y-30939000D01*
X57724000Y-29259000D02*
X57724000Y-28028000D01*
X57203000Y-32053000D02*
X57203000Y-30939000D01*
X56523000Y-29259000D02*
X56523000Y-28547000D01*
X57604000Y-32155000D02*
X57604000Y-30939000D01*
X55843000Y-30469000D02*
X55843000Y-29729000D01*
X56603000Y-29259000D02*
X56603000Y-28480000D01*
X56163000Y-31241000D02*
X56163000Y-28957000D01*
X57284000Y-32081000D02*
X57284000Y-30939000D01*
X56803000Y-31859000D02*
X56803000Y-30939000D01*
X57324000Y-29259000D02*
X57324000Y-28105000D01*
X56403000Y-29259000D02*
X56403000Y-28661000D01*
X55963000Y-30867000D02*
X55963000Y-29331000D01*
X56323000Y-31450000D02*
X56323000Y-28748000D01*
X56683000Y-31779000D02*
X56683000Y-30939000D01*
X57404000Y-32115000D02*
X57404000Y-30939000D01*
X57444000Y-29259000D02*
X57444000Y-28074000D01*
X56643000Y-29259000D02*
X56643000Y-28449000D01*
X57924000Y-29259000D02*
X57924000Y-28019000D01*
X56963000Y-31950000D02*
X56963000Y-30939000D01*
X57163000Y-29259000D02*
X57163000Y-28159000D01*
X57764000Y-29259000D02*
X57764000Y-28025000D01*
X57604000Y-29259000D02*
X57604000Y-28043000D01*
X57844000Y-29259000D02*
X57844000Y-28020000D01*
X57163000Y-32039000D02*
X57163000Y-30939000D01*
X56283000Y-31403000D02*
X56283000Y-28795000D01*
X56763000Y-31834000D02*
X56763000Y-30939000D01*
X57444000Y-32124000D02*
X57444000Y-30939000D01*
X57284000Y-29259000D02*
X57284000Y-28117000D01*
X56723000Y-31807000D02*
X56723000Y-30939000D01*
X57123000Y-32023000D02*
X57123000Y-30939000D01*
X56883000Y-29259000D02*
X56883000Y-28291000D01*
X56443000Y-31577000D02*
X56443000Y-30939000D01*
X56363000Y-31495000D02*
X56363000Y-30939000D01*
X56843000Y-29259000D02*
X56843000Y-28314000D01*
X57203000Y-29259000D02*
X57203000Y-28145000D01*
X57924000Y-32179000D02*
X57924000Y-30939000D01*
X57364000Y-29259000D02*
X57364000Y-28094000D01*
X56483000Y-31615000D02*
X56483000Y-30939000D01*
X56763000Y-29259000D02*
X56763000Y-28364000D01*
X57524000Y-32141000D02*
X57524000Y-30939000D01*
X56403000Y-31537000D02*
X56403000Y-30939000D01*
X57644000Y-32161000D02*
X57644000Y-30939000D01*
X57083000Y-29259000D02*
X57083000Y-28192000D01*
X60193801Y-31294000D02*
X59793801Y-31294000D01*
X55923000Y-30763000D02*
X55923000Y-29435000D01*
X57043000Y-31988000D02*
X57043000Y-30939000D01*
X56043000Y-31039000D02*
X56043000Y-29159000D01*
X56603000Y-31718000D02*
X56603000Y-30939000D01*
X56203000Y-31299000D02*
X56203000Y-28899000D01*
X56803000Y-29259000D02*
X56803000Y-28339000D01*
X57524000Y-29259000D02*
X57524000Y-28057000D01*
X57684000Y-32166000D02*
X57684000Y-30939000D01*
X56883000Y-31907000D02*
X56883000Y-30939000D01*
X56003000Y-30958000D02*
X56003000Y-29240000D01*
X57003000Y-31969000D02*
X57003000Y-30939000D01*
X57244000Y-32067000D02*
X57244000Y-30939000D01*
X57764000Y-32173000D02*
X57764000Y-30939000D01*
X56363000Y-29259000D02*
X56363000Y-28703000D01*
X57043000Y-29259000D02*
X57043000Y-28210000D01*
X57123000Y-29259000D02*
X57123000Y-28175000D01*
X59993801Y-31494000D02*
X59993801Y-31094000D01*
X56243000Y-31353000D02*
X56243000Y-28845000D01*
X56563000Y-31686000D02*
X56563000Y-30939000D01*
X57324000Y-32093000D02*
X57324000Y-30939000D01*
X57564000Y-32149000D02*
X57564000Y-30939000D01*
X57564000Y-29259000D02*
X57564000Y-28049000D01*
X56923000Y-29259000D02*
X56923000Y-28269000D01*
X56643000Y-31749000D02*
X56643000Y-30939000D01*
X56723000Y-29259000D02*
X56723000Y-28391000D01*
X56123000Y-31179000D02*
X56123000Y-29019000D01*
X60044000Y-30099000D02*
G75*
G03*
X60044000Y-30099000I-2120000J0D01*
G01*
%TO.C,Y1*%
X65238000Y-27417000D02*
X58988000Y-27417000D01*
X65238000Y-22367000D02*
X58988000Y-22367000D01*
X58988000Y-22367000D02*
G75*
G03*
X58988000Y-27417000I0J-2525000D01*
G01*
X65238000Y-27417000D02*
G75*
G03*
X65238000Y-22367000I0J2525000D01*
G01*
%TO.C,kibuzzard-63DE866F*%
G36*
X79326578Y-18973406D02*
G01*
X79402381Y-19047225D01*
X79435013Y-19129069D01*
X79454592Y-19243369D01*
X79461119Y-19390125D01*
X79454681Y-19552226D01*
X79435366Y-19676581D01*
X79403175Y-19763188D01*
X79327570Y-19839388D01*
X79216644Y-19864788D01*
X79145206Y-19850500D01*
X79145206Y-18963088D01*
X79216644Y-18948800D01*
X79326578Y-18973406D01*
G37*
G36*
X77011557Y-18612250D02*
G01*
X80010443Y-18612250D01*
X80010443Y-20199750D01*
X77011557Y-20199750D01*
X77011557Y-19985438D01*
X77387844Y-19985438D01*
X77565644Y-19985438D01*
X77565644Y-19504425D01*
X77627556Y-19504425D01*
X77723600Y-19535381D01*
X77753961Y-19580030D01*
X77779956Y-19652063D01*
X77872031Y-19985438D01*
X78054594Y-19985438D01*
X78149844Y-19985438D01*
X78337169Y-19985438D01*
X78481631Y-19521888D01*
X78484806Y-19521888D01*
X78630856Y-19985438D01*
X78824531Y-19985438D01*
X78818471Y-19969563D01*
X78967406Y-19969563D01*
X79086866Y-19993375D01*
X79216644Y-20001313D01*
X79348406Y-19987620D01*
X79451594Y-19946544D01*
X79529977Y-19871733D01*
X79587325Y-19756838D01*
X79613342Y-19656119D01*
X79628953Y-19533882D01*
X79634156Y-19390125D01*
X79628054Y-19241743D01*
X79609748Y-19117273D01*
X79579239Y-19016715D01*
X79536525Y-18940069D01*
X79457591Y-18868190D01*
X79350964Y-18825063D01*
X79216644Y-18810687D01*
X79091628Y-18818625D01*
X78967406Y-18842437D01*
X78967406Y-19969563D01*
X78818471Y-19969563D01*
X78599106Y-19394888D01*
X78821356Y-18826563D01*
X78637206Y-18826563D01*
X78491156Y-19271063D01*
X78487981Y-19271063D01*
X78343519Y-18826563D01*
X78154606Y-18826563D01*
X78376856Y-19394888D01*
X78149844Y-19985438D01*
X78054594Y-19985438D01*
X77956169Y-19661588D01*
X77905369Y-19536969D01*
X77845044Y-19458388D01*
X77845044Y-19455213D01*
X77922831Y-19409770D01*
X77978394Y-19344881D01*
X78011731Y-19260545D01*
X78022844Y-19156763D01*
X78013054Y-19047842D01*
X77983685Y-18960265D01*
X77934738Y-18894031D01*
X77864799Y-18847729D01*
X77772460Y-18819948D01*
X77657719Y-18810687D01*
X77566349Y-18814215D01*
X77476391Y-18824799D01*
X77387844Y-18842437D01*
X77387844Y-19985438D01*
X77011557Y-19985438D01*
X77011557Y-18612250D01*
G37*
G36*
X77742253Y-18961302D02*
G01*
X77802181Y-18998806D01*
X77837900Y-19063298D01*
X77849806Y-19156763D01*
X77837106Y-19254394D01*
X77799006Y-19318688D01*
X77730744Y-19354406D01*
X77627556Y-19366313D01*
X77565644Y-19366313D01*
X77565644Y-18961500D01*
X77657719Y-18948800D01*
X77742253Y-18961302D01*
G37*
%TO.C,kibuzzard-63DE6880*%
G36*
X51007566Y-19875302D02*
G01*
X51067494Y-19912806D01*
X51103213Y-19977298D01*
X51115119Y-20070763D01*
X51102419Y-20168394D01*
X51064319Y-20232688D01*
X50996056Y-20268406D01*
X50892869Y-20280313D01*
X50830956Y-20280313D01*
X50830956Y-19875500D01*
X50923031Y-19862800D01*
X51007566Y-19875302D01*
G37*
G36*
X47841495Y-19877484D02*
G01*
X47901225Y-19921538D01*
X47936348Y-19998531D01*
X47948056Y-20112038D01*
X47936348Y-20234077D01*
X47901225Y-20314444D01*
X47841495Y-20359092D01*
X47755969Y-20373975D01*
X47663894Y-20362863D01*
X47663894Y-19875500D01*
X47755969Y-19862800D01*
X47841495Y-19877484D01*
G37*
G36*
X46903928Y-19526250D02*
G01*
X51902072Y-19526250D01*
X51902072Y-21113750D01*
X46903928Y-21113750D01*
X46903928Y-20899438D01*
X47486094Y-20899438D01*
X47663894Y-20899438D01*
X47663894Y-20502563D01*
X47755969Y-20510500D01*
X47869122Y-20499917D01*
X47960933Y-20468167D01*
X48031400Y-20415250D01*
X48081230Y-20339226D01*
X48086917Y-20320000D01*
X48229044Y-20320000D01*
X48233365Y-20458994D01*
X48246330Y-20577528D01*
X48267937Y-20675600D01*
X48315761Y-20787916D01*
X48381444Y-20861338D01*
X48467962Y-20901819D01*
X48578294Y-20915313D01*
X48688625Y-20901819D01*
X48775144Y-20861338D01*
X48840827Y-20787916D01*
X48888650Y-20675600D01*
X48910258Y-20577528D01*
X48923222Y-20458994D01*
X48927544Y-20320000D01*
X48923222Y-20181006D01*
X48910258Y-20062472D01*
X48888650Y-19964400D01*
X48840827Y-19852084D01*
X48775144Y-19778663D01*
X48693716Y-19740563D01*
X48991044Y-19740563D01*
X49094231Y-20899438D01*
X49265681Y-20899438D01*
X49359344Y-20121563D01*
X49364106Y-20121563D01*
X49443481Y-20899438D01*
X49649856Y-20899438D01*
X49891156Y-20899438D01*
X50446781Y-20899438D01*
X50653156Y-20899438D01*
X50830956Y-20899438D01*
X50830956Y-20418425D01*
X50892869Y-20418425D01*
X50988913Y-20449381D01*
X51019273Y-20494030D01*
X51045269Y-20566063D01*
X51137344Y-20899438D01*
X51319906Y-20899438D01*
X51221481Y-20575588D01*
X51170681Y-20450969D01*
X51110356Y-20372388D01*
X51110356Y-20369213D01*
X51188144Y-20323770D01*
X51243706Y-20258881D01*
X51277044Y-20174545D01*
X51288156Y-20070763D01*
X51278367Y-19961842D01*
X51248998Y-19874265D01*
X51200050Y-19808031D01*
X51130112Y-19761729D01*
X51037772Y-19733948D01*
X50923031Y-19724687D01*
X50831662Y-19728215D01*
X50741703Y-19738799D01*
X50653156Y-19756437D01*
X50653156Y-20899438D01*
X50446781Y-20899438D01*
X50446781Y-20761325D01*
X50068956Y-20761325D01*
X50068956Y-20343813D01*
X50430906Y-20343813D01*
X50430906Y-20208875D01*
X50068956Y-20208875D01*
X50068956Y-19878675D01*
X50446781Y-19878675D01*
X50446781Y-19740563D01*
X49891156Y-19740563D01*
X49891156Y-20899438D01*
X49649856Y-20899438D01*
X49753044Y-19740563D01*
X49594294Y-19740563D01*
X49535556Y-20732750D01*
X49532381Y-20732750D01*
X49448244Y-19931063D01*
X49306956Y-19931063D01*
X49219644Y-20621625D01*
X49216469Y-20621625D01*
X49160906Y-19740563D01*
X48991044Y-19740563D01*
X48693716Y-19740563D01*
X48688625Y-19738181D01*
X48578294Y-19724687D01*
X48467962Y-19738181D01*
X48381444Y-19778663D01*
X48315761Y-19852084D01*
X48267937Y-19964400D01*
X48246330Y-20062472D01*
X48233365Y-20181006D01*
X48229044Y-20320000D01*
X48086917Y-20320000D01*
X48111128Y-20238156D01*
X48121094Y-20112038D01*
X48111392Y-19988124D01*
X48082288Y-19889435D01*
X48033781Y-19815969D01*
X47964108Y-19765257D01*
X47871503Y-19734830D01*
X47755969Y-19724687D01*
X47664599Y-19728215D01*
X47574641Y-19738799D01*
X47486094Y-19756437D01*
X47486094Y-20899438D01*
X46903928Y-20899438D01*
X46903928Y-19526250D01*
G37*
G36*
X48660447Y-19887208D02*
G01*
X48716406Y-19960431D01*
X48740219Y-20043775D01*
X48754506Y-20163631D01*
X48759269Y-20320000D01*
X48754506Y-20476369D01*
X48740219Y-20596225D01*
X48716406Y-20679569D01*
X48660447Y-20752792D01*
X48578294Y-20777200D01*
X48496141Y-20752792D01*
X48440181Y-20679569D01*
X48416369Y-20596225D01*
X48402081Y-20476369D01*
X48397319Y-20320000D01*
X48402081Y-20163631D01*
X48416369Y-20043775D01*
X48440181Y-19960431D01*
X48496141Y-19887208D01*
X48578294Y-19862800D01*
X48660447Y-19887208D01*
G37*
%TO.C,C3*%
X68607000Y-25646748D02*
X68607000Y-26169252D01*
X70077000Y-25646748D02*
X70077000Y-26169252D01*
%TO.C,kibuzzard-63DDA454*%
G36*
X96873219Y-36663709D02*
G01*
X96873219Y-36666091D01*
X96056450Y-36828016D01*
X96056450Y-36501784D01*
X96873219Y-36663709D01*
G37*
G36*
X95104806Y-34089560D02*
G01*
X95121607Y-33976294D01*
X95149430Y-33865220D01*
X95188006Y-33757408D01*
X95236963Y-33653896D01*
X95295831Y-33555681D01*
X95364042Y-33463710D01*
X95440939Y-33378867D01*
X95525782Y-33301969D01*
X95617754Y-33233759D01*
X95715968Y-33174891D01*
X95819480Y-33125934D01*
X95927292Y-33087358D01*
X96038366Y-33059535D01*
X96151632Y-33042734D01*
X96266000Y-33037115D01*
X96380368Y-33042734D01*
X96493634Y-33059535D01*
X96604708Y-33087358D01*
X96712520Y-33125934D01*
X96816032Y-33174891D01*
X96914246Y-33233759D01*
X97006218Y-33301969D01*
X97091061Y-33378867D01*
X97167958Y-33463710D01*
X97236169Y-33555681D01*
X97295037Y-33653896D01*
X97343994Y-33757408D01*
X97382570Y-33865220D01*
X97410393Y-33976294D01*
X97427194Y-34089560D01*
X97432812Y-34203928D01*
X97432812Y-39202072D01*
X97427194Y-39316440D01*
X97410393Y-39429706D01*
X97382570Y-39540780D01*
X97343994Y-39648592D01*
X97295037Y-39752104D01*
X97236169Y-39850319D01*
X97167958Y-39942290D01*
X97091061Y-40027133D01*
X97006218Y-40104031D01*
X96914246Y-40172241D01*
X96816032Y-40231109D01*
X96712520Y-40280066D01*
X96604708Y-40318642D01*
X96493634Y-40346465D01*
X96380368Y-40363266D01*
X96266000Y-40368885D01*
X96151632Y-40363266D01*
X96038366Y-40346465D01*
X95927292Y-40318642D01*
X95819480Y-40280066D01*
X95715968Y-40231109D01*
X95617754Y-40172241D01*
X95525782Y-40104031D01*
X95440939Y-40027133D01*
X95364042Y-39942290D01*
X95295831Y-39850319D01*
X95236963Y-39752104D01*
X95188006Y-39648592D01*
X95149430Y-39540780D01*
X95121607Y-39429706D01*
X95104806Y-39316440D01*
X95099188Y-39202072D01*
X95099188Y-37670978D01*
X95396844Y-37670978D01*
X96658906Y-37670978D01*
X96658906Y-37675741D01*
X95396844Y-38047216D01*
X95396844Y-38313916D01*
X97135156Y-38313916D01*
X97135156Y-38063884D01*
X95873094Y-38063884D01*
X95873094Y-38056741D01*
X97135156Y-37685266D01*
X97135156Y-37409041D01*
X95396844Y-37409041D01*
X95396844Y-37670978D01*
X95099188Y-37670978D01*
X95099188Y-36370816D01*
X95396844Y-36370816D01*
X95854044Y-36461303D01*
X95854044Y-36868497D01*
X95396844Y-36958984D01*
X95396844Y-37235209D01*
X97135156Y-36823253D01*
X97135156Y-36513691D01*
X95396844Y-36104116D01*
X95396844Y-36370816D01*
X95099188Y-36370816D01*
X95099188Y-35358784D01*
X95396844Y-35358784D01*
X96230281Y-35358784D01*
X96230281Y-35877897D01*
X96432687Y-35877897D01*
X96432687Y-35358784D01*
X96927988Y-35358784D01*
X96927988Y-35901709D01*
X97135156Y-35901709D01*
X97135156Y-35092084D01*
X95396844Y-35092084D01*
X95396844Y-35358784D01*
X95099188Y-35358784D01*
X95099188Y-34203928D01*
X95104806Y-34089560D01*
G37*
%TO.C,J1*%
X42831000Y-62441500D02*
X42831000Y-55941500D01*
X51321000Y-53241500D02*
X51821000Y-54241500D01*
X47231000Y-55941500D02*
X47231000Y-55941500D01*
X41531000Y-54631500D02*
X57031000Y-54631500D01*
X55731000Y-55941500D02*
X55731000Y-62441500D01*
X57031000Y-54631500D02*
X57031000Y-63751500D01*
X51331000Y-54631500D02*
X51331000Y-55941500D01*
X42831000Y-55941500D02*
X47231000Y-55941500D01*
X57031000Y-63751500D02*
X41531000Y-63751500D01*
X51331000Y-55941500D02*
X55731000Y-55941500D01*
X51821000Y-54241500D02*
X52321000Y-53241500D01*
X47231000Y-55941500D02*
X47231000Y-54631500D01*
X55731000Y-62441500D02*
X42831000Y-62441500D01*
X52321000Y-53241500D02*
X51321000Y-53241500D01*
X41531000Y-63751500D02*
X41531000Y-54631500D01*
%TO.C,RN1*%
X81537000Y-27798000D02*
X78737000Y-27798000D01*
X81537000Y-48288000D02*
X81537000Y-25088000D01*
X78737000Y-48288000D02*
X81537000Y-48288000D01*
X78737000Y-25088000D02*
X78737000Y-48288000D01*
X81537000Y-25088000D02*
X78737000Y-25088000D01*
%TO.C,kibuzzard-63DE8685*%
G36*
X69391557Y-18612250D02*
G01*
X72390443Y-18612250D01*
X72390443Y-20199750D01*
X69391557Y-20199750D01*
X69391557Y-19398063D01*
X69750381Y-19398063D01*
X69756582Y-19539449D01*
X69775186Y-19661984D01*
X69806192Y-19765668D01*
X69849600Y-19850500D01*
X69905411Y-19916480D01*
X69973623Y-19963609D01*
X70054239Y-19991887D01*
X70147256Y-20001313D01*
X70242153Y-19995139D01*
X70289272Y-19985438D01*
X70583819Y-19985438D01*
X70758444Y-19985438D01*
X70758444Y-19144063D01*
X70761619Y-19144063D01*
X71009269Y-19985438D01*
X71187069Y-19985438D01*
X71187069Y-19969563D01*
X71364869Y-19969563D01*
X71484328Y-19993375D01*
X71614106Y-20001313D01*
X71745869Y-19987620D01*
X71849056Y-19946544D01*
X71927439Y-19871733D01*
X71984788Y-19756838D01*
X72010805Y-19656119D01*
X72026415Y-19533882D01*
X72031619Y-19390125D01*
X72025517Y-19241743D01*
X72007211Y-19117273D01*
X71976701Y-19016715D01*
X71933988Y-18940069D01*
X71855053Y-18868190D01*
X71748426Y-18825063D01*
X71614106Y-18810687D01*
X71489091Y-18818625D01*
X71364869Y-18842437D01*
X71364869Y-19969563D01*
X71187069Y-19969563D01*
X71187069Y-18826563D01*
X71020381Y-18826563D01*
X71020381Y-19667938D01*
X71015619Y-19667938D01*
X70767969Y-18826563D01*
X70583819Y-18826563D01*
X70583819Y-19985438D01*
X70289272Y-19985438D01*
X70332112Y-19976618D01*
X70417131Y-19945750D01*
X70417131Y-19294875D01*
X70047244Y-19294875D01*
X70047244Y-19429813D01*
X70247269Y-19429813D01*
X70247269Y-19845738D01*
X70152019Y-19864788D01*
X70055181Y-19837800D01*
X69983744Y-19756838D01*
X69951112Y-19668996D01*
X69931533Y-19549404D01*
X69925006Y-19398063D01*
X69931885Y-19250160D01*
X69952523Y-19134538D01*
X69986919Y-19051194D01*
X70065897Y-18975589D01*
X70179006Y-18950388D01*
X70276241Y-18959913D01*
X70377444Y-18988488D01*
X70377444Y-18845613D01*
X70280209Y-18819419D01*
X70179006Y-18810687D01*
X70048037Y-18826386D01*
X69940881Y-18873482D01*
X69857537Y-18951975D01*
X69810657Y-19032838D01*
X69777170Y-19134141D01*
X69757079Y-19255882D01*
X69750381Y-19398063D01*
X69391557Y-19398063D01*
X69391557Y-18612250D01*
G37*
G36*
X71724041Y-18973406D02*
G01*
X71799844Y-19047225D01*
X71832476Y-19129069D01*
X71852055Y-19243369D01*
X71858581Y-19390125D01*
X71852143Y-19552226D01*
X71832828Y-19676581D01*
X71800638Y-19763188D01*
X71725033Y-19839388D01*
X71614106Y-19864788D01*
X71542669Y-19850500D01*
X71542669Y-18963088D01*
X71614106Y-18948800D01*
X71724041Y-18973406D01*
G37*
%TO.C,kibuzzard-63DDA41D*%
G36*
X25507553Y-35262344D02*
G01*
X25687337Y-35283775D01*
X25812353Y-35319494D01*
X25922188Y-35403433D01*
X25958800Y-35526663D01*
X25922188Y-35649892D01*
X25812353Y-35733831D01*
X25687337Y-35769550D01*
X25507553Y-35790981D01*
X25273000Y-35798125D01*
X25038447Y-35790981D01*
X24858663Y-35769550D01*
X24733647Y-35733831D01*
X24623812Y-35649892D01*
X24587200Y-35526663D01*
X24623812Y-35403433D01*
X24733647Y-35319494D01*
X24858663Y-35283775D01*
X25038447Y-35262344D01*
X25273000Y-35255200D01*
X25507553Y-35262344D01*
G37*
G36*
X24955401Y-40105806D02*
G01*
X25040828Y-40162956D01*
X25089941Y-40260588D01*
X25106313Y-40401081D01*
X25106313Y-40470138D01*
X24603869Y-40470138D01*
X24584819Y-40351075D01*
X24612071Y-40204231D01*
X24693827Y-40116125D01*
X24830087Y-40086756D01*
X24955401Y-40105806D01*
G37*
G36*
X25783480Y-40062051D02*
G01*
X25883791Y-40116522D01*
X25941834Y-40207902D01*
X25961181Y-40336788D01*
X25942131Y-40470138D01*
X25308719Y-40470138D01*
X25308719Y-40370125D01*
X25328364Y-40223678D01*
X25387300Y-40122475D01*
X25489098Y-40063539D01*
X25637331Y-40043894D01*
X25783480Y-40062051D01*
G37*
G36*
X26457892Y-41151195D02*
G01*
X26440747Y-41266773D01*
X26412357Y-41380114D01*
X26372994Y-41490126D01*
X26323038Y-41595750D01*
X26262969Y-41695970D01*
X26193366Y-41789818D01*
X26114899Y-41876393D01*
X26028325Y-41954859D01*
X25934476Y-42024462D01*
X25834257Y-42084531D01*
X25728632Y-42134488D01*
X25618620Y-42173851D01*
X25505279Y-42202241D01*
X25389702Y-42219386D01*
X25273000Y-42225119D01*
X25156298Y-42219386D01*
X25040721Y-42202241D01*
X24927380Y-42173851D01*
X24817368Y-42134488D01*
X24711743Y-42084531D01*
X24611524Y-42024462D01*
X24517675Y-41954859D01*
X24431101Y-41876393D01*
X24352634Y-41789818D01*
X24283031Y-41695970D01*
X24222962Y-41595750D01*
X24173006Y-41490126D01*
X24133643Y-41380114D01*
X24105253Y-41266773D01*
X24088108Y-41151195D01*
X24082375Y-41034494D01*
X24082375Y-40351075D01*
X24380031Y-40351075D01*
X24391937Y-40547528D01*
X24427656Y-40736838D01*
X26118344Y-40736838D01*
X26144802Y-40605604D01*
X26160677Y-40472254D01*
X26165969Y-40336788D01*
X26151417Y-40167983D01*
X26107760Y-40029871D01*
X26035000Y-39922450D01*
X25933135Y-39845721D01*
X25802167Y-39799683D01*
X25642094Y-39784338D01*
X25482550Y-39807257D01*
X25346819Y-39876016D01*
X25247402Y-39979302D01*
X25196800Y-40105806D01*
X25194419Y-40105806D01*
X25145603Y-39994185D01*
X25061069Y-39906972D01*
X24947959Y-39850715D01*
X24813419Y-39831963D01*
X24657399Y-39852727D01*
X24536051Y-39915021D01*
X24449373Y-40018843D01*
X24397367Y-40164195D01*
X24380031Y-40351075D01*
X24082375Y-40351075D01*
X24082375Y-39574788D01*
X24403844Y-39574788D01*
X25689719Y-39574788D01*
X25844765Y-39562484D01*
X25967002Y-39525575D01*
X26056431Y-39464059D01*
X26117285Y-39374233D01*
X26153798Y-39252393D01*
X26165969Y-39098538D01*
X26153798Y-38944682D01*
X26117285Y-38822842D01*
X26056431Y-38733016D01*
X25967002Y-38671500D01*
X25844765Y-38634591D01*
X25689719Y-38622288D01*
X24403844Y-38622288D01*
X24403844Y-38881844D01*
X25642094Y-38881844D01*
X25797768Y-38893750D01*
X25893316Y-38929469D01*
X25958800Y-39093775D01*
X25942131Y-39193192D01*
X25892125Y-39258081D01*
X25796280Y-39293800D01*
X25642094Y-39305706D01*
X24403844Y-39305706D01*
X24403844Y-39574788D01*
X24082375Y-39574788D01*
X24082375Y-38396069D01*
X24403844Y-38396069D01*
X24611012Y-38396069D01*
X24611012Y-38041263D01*
X26142156Y-38041263D01*
X26142156Y-37774563D01*
X24611012Y-37774563D01*
X24611012Y-37419756D01*
X24403844Y-37419756D01*
X24403844Y-38396069D01*
X24082375Y-38396069D01*
X24082375Y-37205444D01*
X24403844Y-37205444D01*
X24611012Y-37205444D01*
X24611012Y-36850638D01*
X26142156Y-36850638D01*
X26142156Y-36583938D01*
X24611012Y-36583938D01*
X24611012Y-36229131D01*
X24403844Y-36229131D01*
X24403844Y-37205444D01*
X24082375Y-37205444D01*
X24082375Y-35526663D01*
X24380031Y-35526663D01*
X24400272Y-35692159D01*
X24460994Y-35821938D01*
X24571127Y-35920462D01*
X24739600Y-35992197D01*
X24886708Y-36024608D01*
X25064508Y-36044055D01*
X25273000Y-36050538D01*
X25481492Y-36044055D01*
X25659292Y-36024608D01*
X25806400Y-35992197D01*
X25974873Y-35920462D01*
X26085006Y-35821938D01*
X26145728Y-35692159D01*
X26165969Y-35526663D01*
X26145728Y-35361166D01*
X26085006Y-35231388D01*
X25974873Y-35132863D01*
X25806400Y-35061128D01*
X25659292Y-35028717D01*
X25481492Y-35009270D01*
X25273000Y-35002788D01*
X25064508Y-35009270D01*
X24886708Y-35028717D01*
X24739600Y-35061128D01*
X24571127Y-35132863D01*
X24460994Y-35231388D01*
X24400272Y-35361166D01*
X24380031Y-35526663D01*
X24082375Y-35526663D01*
X24082375Y-34788475D01*
X24403844Y-34788475D01*
X26142156Y-34788475D01*
X26142156Y-34526538D01*
X24880094Y-34526538D01*
X24880094Y-34521775D01*
X26142156Y-34150300D01*
X26142156Y-33883600D01*
X24403844Y-33883600D01*
X24403844Y-34133631D01*
X25665906Y-34133631D01*
X25665906Y-34140775D01*
X24403844Y-34512250D01*
X24403844Y-34788475D01*
X24082375Y-34788475D01*
X24082375Y-33116838D01*
X24380031Y-33116838D01*
X24393260Y-33259051D01*
X24432948Y-33377717D01*
X24499094Y-33472834D01*
X24641969Y-33566596D01*
X24832469Y-33597850D01*
X25001537Y-33573145D01*
X25142031Y-33499028D01*
X25224581Y-33417140D01*
X25303956Y-33303236D01*
X25380156Y-33157319D01*
X25441473Y-33055223D01*
X25511125Y-32987059D01*
X25595659Y-32948662D01*
X25701625Y-32935863D01*
X25812651Y-32952531D01*
X25893316Y-33002538D01*
X25942429Y-33082309D01*
X25958800Y-33188275D01*
X25941602Y-33327710D01*
X25890008Y-33460267D01*
X25804019Y-33585944D01*
X26051669Y-33585944D01*
X26115169Y-33463706D01*
X26153269Y-33328769D01*
X26165969Y-33181131D01*
X26146919Y-32996823D01*
X26089769Y-32853471D01*
X25994519Y-32751078D01*
X25861169Y-32689641D01*
X25689719Y-32669163D01*
X25505767Y-32694761D01*
X25358725Y-32771556D01*
X25273794Y-32858604D01*
X25190450Y-32983223D01*
X25108694Y-33145413D01*
X25037521Y-33251246D01*
X24941477Y-33314746D01*
X24820562Y-33335913D01*
X24722931Y-33319244D01*
X24649112Y-33269238D01*
X24602678Y-33190061D01*
X24587200Y-33085881D01*
X24612798Y-32900739D01*
X24689594Y-32716788D01*
X24451469Y-32716788D01*
X24411781Y-32844846D01*
X24387969Y-32978196D01*
X24380031Y-33116838D01*
X24082375Y-33116838D01*
X24082375Y-32371506D01*
X24088108Y-32254805D01*
X24105253Y-32139227D01*
X24133643Y-32025886D01*
X24173006Y-31915874D01*
X24222962Y-31810250D01*
X24283031Y-31710030D01*
X24352634Y-31616182D01*
X24431101Y-31529607D01*
X24517675Y-31451141D01*
X24611524Y-31381538D01*
X24711743Y-31321469D01*
X24817368Y-31271512D01*
X24927380Y-31232149D01*
X25040721Y-31203759D01*
X25156298Y-31186614D01*
X25273000Y-31180881D01*
X25389702Y-31186614D01*
X25505279Y-31203759D01*
X25618620Y-31232149D01*
X25728632Y-31271512D01*
X25834257Y-31321469D01*
X25934476Y-31381538D01*
X26028325Y-31451141D01*
X26114899Y-31529607D01*
X26193366Y-31616182D01*
X26262969Y-31710030D01*
X26323038Y-31810250D01*
X26372994Y-31915874D01*
X26412357Y-32025886D01*
X26440747Y-32139227D01*
X26457892Y-32254805D01*
X26463625Y-32371506D01*
X26463625Y-41034494D01*
X26457892Y-41151195D01*
G37*
%TO.C,Q1*%
X68544000Y-45085000D02*
X68544000Y-44435000D01*
X71664000Y-45085000D02*
X71664000Y-43410000D01*
X71664000Y-45085000D02*
X71664000Y-45735000D01*
X68544000Y-45085000D02*
X68544000Y-45735000D01*
%TO.C,J3*%
X93175500Y-45693000D02*
X86675500Y-45693000D01*
X94485500Y-26413000D02*
X94485500Y-46993000D01*
X85365500Y-26413000D02*
X94485500Y-26413000D01*
X86675500Y-38753000D02*
X86675500Y-38753000D01*
X94485500Y-46993000D02*
X85365500Y-46993000D01*
X83975500Y-31123000D02*
X83975500Y-32123000D01*
X86675500Y-34653000D02*
X86675500Y-27713000D01*
X84975500Y-31623000D02*
X83975500Y-31123000D01*
X86675500Y-38753000D02*
X85365500Y-38753000D01*
X85365500Y-46993000D02*
X85365500Y-26413000D01*
X83975500Y-32123000D02*
X84975500Y-31623000D01*
X93175500Y-27713000D02*
X93175500Y-45693000D01*
X85365500Y-34653000D02*
X86675500Y-34653000D01*
X86675500Y-27713000D02*
X93175500Y-27713000D01*
X86675500Y-45693000D02*
X86675500Y-38753000D01*
%TO.C,kibuzzard-63DE4E4C*%
G36*
X61760497Y-58821241D02*
G01*
X61856938Y-58878391D01*
X61910516Y-58980784D01*
X61928375Y-59135566D01*
X61928375Y-59228434D01*
X61321156Y-59228434D01*
X61302106Y-59090322D01*
X61320859Y-58963520D01*
X61377116Y-58873628D01*
X61473854Y-58820050D01*
X61614050Y-58802191D01*
X61760497Y-58821241D01*
G37*
G36*
X63149043Y-62177607D02*
G01*
X63132070Y-62292029D01*
X63103964Y-62404236D01*
X63064994Y-62513148D01*
X63015537Y-62617716D01*
X62956069Y-62716933D01*
X62887162Y-62809844D01*
X62809480Y-62895552D01*
X62723771Y-62973234D01*
X62630861Y-63042141D01*
X62531644Y-63101609D01*
X62427076Y-63151066D01*
X62318164Y-63190036D01*
X62205957Y-63218142D01*
X62091535Y-63235115D01*
X61976000Y-63240791D01*
X61860465Y-63235115D01*
X61746043Y-63218142D01*
X61633836Y-63190036D01*
X61524924Y-63151066D01*
X61420356Y-63101609D01*
X61321139Y-63042141D01*
X61228229Y-62973234D01*
X61142520Y-62895552D01*
X61064838Y-62809844D01*
X60995931Y-62716933D01*
X60936463Y-62617716D01*
X60887006Y-62513148D01*
X60848036Y-62404236D01*
X60819930Y-62292029D01*
X60802957Y-62177607D01*
X60797281Y-62062072D01*
X60797281Y-60630991D01*
X61118750Y-60630991D01*
X61325919Y-60630991D01*
X61325919Y-60364291D01*
X62649894Y-60364291D01*
X62649894Y-60630991D01*
X62857063Y-60630991D01*
X62857063Y-59821366D01*
X62649894Y-59821366D01*
X62649894Y-60088066D01*
X61325919Y-60088066D01*
X61325919Y-59821366D01*
X61118750Y-59821366D01*
X61118750Y-60630991D01*
X60797281Y-60630991D01*
X60797281Y-59090322D01*
X61094937Y-59090322D01*
X61100229Y-59227376D01*
X61116104Y-59362314D01*
X61142562Y-59495134D01*
X62857063Y-59495134D01*
X62857063Y-59228434D01*
X62135544Y-59228434D01*
X62135544Y-59135566D01*
X62181978Y-58991500D01*
X62248951Y-58945959D01*
X62357000Y-58906966D01*
X62857063Y-58768853D01*
X62857063Y-58495009D01*
X62371287Y-58642647D01*
X62184359Y-58718847D01*
X62066488Y-58809334D01*
X62061725Y-58809334D01*
X61993562Y-58692653D01*
X61896228Y-58609309D01*
X61769724Y-58559303D01*
X61614050Y-58542634D01*
X61450670Y-58557319D01*
X61319304Y-58601372D01*
X61219953Y-58674794D01*
X61150500Y-58779701D01*
X61108828Y-58918210D01*
X61094937Y-59090322D01*
X60797281Y-59090322D01*
X60797281Y-57063928D01*
X60802957Y-56948393D01*
X60819930Y-56833971D01*
X60848036Y-56721764D01*
X60887006Y-56612852D01*
X60936463Y-56508284D01*
X60995931Y-56409067D01*
X61064838Y-56316156D01*
X61142520Y-56230448D01*
X61228229Y-56152766D01*
X61321139Y-56083859D01*
X61420356Y-56024391D01*
X61524924Y-55974934D01*
X61633836Y-55935964D01*
X61746043Y-55907858D01*
X61860465Y-55890885D01*
X61976000Y-55885209D01*
X62091535Y-55890885D01*
X62205957Y-55907858D01*
X62318164Y-55935964D01*
X62427076Y-55974934D01*
X62531644Y-56024391D01*
X62630861Y-56083859D01*
X62723771Y-56152766D01*
X62809480Y-56230448D01*
X62887162Y-56316156D01*
X62956069Y-56409067D01*
X63015537Y-56508284D01*
X63064994Y-56612852D01*
X63103964Y-56721764D01*
X63132070Y-56833971D01*
X63149043Y-56948393D01*
X63154719Y-57063928D01*
X63154719Y-62062072D01*
X63149043Y-62177607D01*
G37*
%TO.C,C5*%
X63772148Y-45464400D02*
X64294652Y-45464400D01*
X63772148Y-43994400D02*
X64294652Y-43994400D01*
%TO.C,kibuzzard-63DE867D*%
G36*
X82384103Y-18973406D02*
G01*
X82459906Y-19047225D01*
X82492538Y-19129069D01*
X82512117Y-19243369D01*
X82518644Y-19390125D01*
X82512206Y-19552226D01*
X82492891Y-19676581D01*
X82460700Y-19763188D01*
X82385095Y-19839388D01*
X82274169Y-19864788D01*
X82202731Y-19850500D01*
X82202731Y-18963088D01*
X82274169Y-18948800D01*
X82384103Y-18973406D01*
G37*
G36*
X80059557Y-18612250D02*
G01*
X83058443Y-18612250D01*
X83058443Y-20199750D01*
X80059557Y-20199750D01*
X80059557Y-18964675D01*
X80426319Y-18964675D01*
X80662856Y-18964675D01*
X80662856Y-19985438D01*
X80840656Y-19985438D01*
X81207369Y-19985438D01*
X81394694Y-19985438D01*
X81539156Y-19521888D01*
X81542331Y-19521888D01*
X81688381Y-19985438D01*
X81882056Y-19985438D01*
X81875996Y-19969563D01*
X82024931Y-19969563D01*
X82144391Y-19993375D01*
X82274169Y-20001313D01*
X82405931Y-19987620D01*
X82509119Y-19946544D01*
X82587502Y-19871733D01*
X82644850Y-19756838D01*
X82670867Y-19656119D01*
X82686478Y-19533882D01*
X82691681Y-19390125D01*
X82685579Y-19241743D01*
X82667273Y-19117273D01*
X82636764Y-19016715D01*
X82594050Y-18940069D01*
X82515116Y-18868190D01*
X82408489Y-18825063D01*
X82274169Y-18810687D01*
X82149153Y-18818625D01*
X82024931Y-18842437D01*
X82024931Y-19969563D01*
X81875996Y-19969563D01*
X81656631Y-19394888D01*
X81878881Y-18826563D01*
X81694731Y-18826563D01*
X81548681Y-19271063D01*
X81545506Y-19271063D01*
X81401044Y-18826563D01*
X81212131Y-18826563D01*
X81434381Y-19394888D01*
X81207369Y-19985438D01*
X80840656Y-19985438D01*
X80840656Y-18964675D01*
X81077194Y-18964675D01*
X81077194Y-18826563D01*
X80426319Y-18826563D01*
X80426319Y-18964675D01*
X80059557Y-18964675D01*
X80059557Y-18612250D01*
G37*
D10*
%TO.C,U3*%
X61161400Y-33717400D02*
X61486400Y-33717400D01*
X61161400Y-33717400D02*
X61161400Y-34042400D01*
X68186400Y-33717400D02*
X68186400Y-32292400D01*
X61161400Y-40967400D02*
X61161400Y-40642400D01*
X68411400Y-40967400D02*
X68411400Y-40642400D01*
X68411400Y-33717400D02*
X68186400Y-33717400D01*
X68411400Y-33717400D02*
X68411400Y-34042400D01*
X68411400Y-40967400D02*
X68086400Y-40967400D01*
X61161400Y-40967400D02*
X61486400Y-40967400D01*
%TO.C,kibuzzard-63DE4E8B*%
G36*
X73827928Y-50637281D02*
G01*
X78826072Y-50637281D01*
X78826072Y-52994719D01*
X73827928Y-52994719D01*
X73827928Y-52625625D01*
X75255437Y-52625625D01*
X75419148Y-52679203D01*
X75595956Y-52697062D01*
X75759204Y-52682246D01*
X75890173Y-52637796D01*
X75988862Y-52563713D01*
X76057654Y-52455233D01*
X76098929Y-52307596D01*
X76112687Y-52120800D01*
X76097447Y-51919346D01*
X76051727Y-51762660D01*
X75975527Y-51650741D01*
X75868847Y-51583590D01*
X75731687Y-51561206D01*
X75618578Y-51576089D01*
X75522137Y-51620738D01*
X75517375Y-51620738D01*
X75534044Y-51139725D01*
X76065062Y-51139725D01*
X76065062Y-50934938D01*
X76315094Y-50934938D01*
X76700856Y-52673250D01*
X77010419Y-52673250D01*
X77398562Y-50934938D01*
X77134244Y-50934938D01*
X76862781Y-52435125D01*
X76860400Y-52435125D01*
X76588937Y-50934938D01*
X76315094Y-50934938D01*
X76065062Y-50934938D01*
X75291156Y-50934938D01*
X75267344Y-51858863D01*
X75486419Y-51858863D01*
X75569167Y-51787425D01*
X75660250Y-51763612D01*
X75800744Y-51845766D01*
X75834677Y-51955601D01*
X75845987Y-52120800D01*
X75829914Y-52294929D01*
X75781694Y-52407741D01*
X75698350Y-52469355D01*
X75576906Y-52489894D01*
X75417958Y-52467272D01*
X75255437Y-52399406D01*
X75255437Y-52625625D01*
X73827928Y-52625625D01*
X73827928Y-50637281D01*
G37*
%TO.C,kibuzzard-63E16F65*%
G36*
X84749928Y-50649188D02*
G01*
X89748072Y-50649188D01*
X89748072Y-52982812D01*
X84749928Y-52982812D01*
X84749928Y-52685156D01*
X86742984Y-52685156D01*
X87023972Y-52685156D01*
X87240666Y-51989831D01*
X87245428Y-51989831D01*
X87464503Y-52685156D01*
X87755016Y-52685156D01*
X87416878Y-51799331D01*
X87750253Y-50946844D01*
X87474028Y-50946844D01*
X87254953Y-51613594D01*
X87250191Y-51613594D01*
X87033497Y-50946844D01*
X86750128Y-50946844D01*
X87083503Y-51799331D01*
X86742984Y-52685156D01*
X84749928Y-52685156D01*
X84749928Y-50649188D01*
G37*
D11*
%TO.C,C1*%
X65031252Y-29872000D02*
X64508748Y-29872000D01*
X65031252Y-31342000D02*
X64508748Y-31342000D01*
%TO.C,kibuzzard-63DE4E8B*%
G36*
X89829928Y-50637281D02*
G01*
X94828072Y-50637281D01*
X94828072Y-52994719D01*
X89829928Y-52994719D01*
X89829928Y-52625625D01*
X91257437Y-52625625D01*
X91421148Y-52679203D01*
X91597956Y-52697062D01*
X91761204Y-52682246D01*
X91892173Y-52637796D01*
X91990862Y-52563713D01*
X92059654Y-52455233D01*
X92100929Y-52307596D01*
X92114687Y-52120800D01*
X92099447Y-51919346D01*
X92053727Y-51762660D01*
X91977527Y-51650741D01*
X91870847Y-51583590D01*
X91733687Y-51561206D01*
X91620578Y-51576089D01*
X91524137Y-51620738D01*
X91519375Y-51620738D01*
X91536044Y-51139725D01*
X92067062Y-51139725D01*
X92067062Y-50934938D01*
X92317094Y-50934938D01*
X92702856Y-52673250D01*
X93012419Y-52673250D01*
X93400562Y-50934938D01*
X93136244Y-50934938D01*
X92864781Y-52435125D01*
X92862400Y-52435125D01*
X92590937Y-50934938D01*
X92317094Y-50934938D01*
X92067062Y-50934938D01*
X91293156Y-50934938D01*
X91269344Y-51858863D01*
X91488419Y-51858863D01*
X91571167Y-51787425D01*
X91662250Y-51763612D01*
X91802744Y-51845766D01*
X91836677Y-51955601D01*
X91847987Y-52120800D01*
X91831914Y-52294929D01*
X91783694Y-52407741D01*
X91700350Y-52469355D01*
X91578906Y-52489894D01*
X91419958Y-52467272D01*
X91257437Y-52399406D01*
X91257437Y-52625625D01*
X89829928Y-52625625D01*
X89829928Y-50637281D01*
G37*
%TO.C,kibuzzard-63DDA468*%
G36*
X46578480Y-52301452D02*
G01*
X46668372Y-52357709D01*
X46721950Y-52454448D01*
X46739809Y-52594644D01*
X46720759Y-52741091D01*
X46663609Y-52837531D01*
X46561216Y-52891109D01*
X46406434Y-52908969D01*
X46313566Y-52908969D01*
X46313566Y-52301750D01*
X46451678Y-52282700D01*
X46578480Y-52301452D01*
G37*
G36*
X47820302Y-52319312D02*
G01*
X47904241Y-52429147D01*
X47939959Y-52554163D01*
X47961391Y-52733947D01*
X47968534Y-52968500D01*
X47961391Y-53203053D01*
X47939959Y-53382837D01*
X47904241Y-53507853D01*
X47820302Y-53617688D01*
X47697072Y-53654300D01*
X47573842Y-53617688D01*
X47489903Y-53507853D01*
X47454184Y-53382837D01*
X47432753Y-53203053D01*
X47425609Y-52968500D01*
X47432753Y-52733947D01*
X47454184Y-52554163D01*
X47489903Y-52429147D01*
X47573842Y-52319312D01*
X47697072Y-52282700D01*
X47820302Y-52319312D01*
G37*
G36*
X44453789Y-54153392D02*
G01*
X44338211Y-54136247D01*
X44224870Y-54107857D01*
X44114858Y-54068494D01*
X44009234Y-54018538D01*
X43909015Y-53958469D01*
X43815166Y-53888866D01*
X43758665Y-53837656D01*
X44868147Y-53837656D01*
X45134847Y-53837656D01*
X46046866Y-53837656D01*
X46313566Y-53837656D01*
X46313566Y-53116138D01*
X46406434Y-53116138D01*
X46550500Y-53162572D01*
X46596041Y-53229545D01*
X46635034Y-53337594D01*
X46773147Y-53837656D01*
X47046991Y-53837656D01*
X46899353Y-53351881D01*
X46823153Y-53164953D01*
X46732666Y-53047081D01*
X46732666Y-53042319D01*
X46849347Y-52974155D01*
X46854189Y-52968500D01*
X47173197Y-52968500D01*
X47179679Y-53176992D01*
X47199126Y-53354792D01*
X47231538Y-53501900D01*
X47303273Y-53670373D01*
X47401797Y-53780506D01*
X47531575Y-53841228D01*
X47697072Y-53861469D01*
X47862569Y-53841228D01*
X47992347Y-53780506D01*
X48090871Y-53670373D01*
X48162606Y-53501900D01*
X48195018Y-53354792D01*
X48214465Y-53176992D01*
X48220947Y-52968500D01*
X48220577Y-52956594D01*
X48375728Y-52956594D01*
X48385030Y-53168674D01*
X48412935Y-53352477D01*
X48459444Y-53508002D01*
X48524556Y-53635250D01*
X48608272Y-53734221D01*
X48710591Y-53804914D01*
X48831514Y-53847330D01*
X48971041Y-53861469D01*
X49113386Y-53852208D01*
X49248324Y-53824427D01*
X49375853Y-53778125D01*
X49375853Y-52801813D01*
X48821022Y-52801813D01*
X48821022Y-53004219D01*
X49121059Y-53004219D01*
X49121059Y-53628106D01*
X48978184Y-53656681D01*
X48832928Y-53616200D01*
X48725772Y-53494756D01*
X48676824Y-53362994D01*
X48647455Y-53183606D01*
X48637666Y-52956594D01*
X48647984Y-52734741D01*
X48678941Y-52561306D01*
X48730534Y-52436291D01*
X48849002Y-52322884D01*
X49018666Y-52285081D01*
X49164517Y-52299369D01*
X49316322Y-52342231D01*
X49316322Y-52127919D01*
X49170470Y-52088628D01*
X49018666Y-52075531D01*
X48822213Y-52099079D01*
X48661478Y-52169723D01*
X48536463Y-52287462D01*
X48466141Y-52408757D01*
X48415912Y-52560711D01*
X48385774Y-52743323D01*
X48375728Y-52956594D01*
X48220577Y-52956594D01*
X48214465Y-52760008D01*
X48195018Y-52582208D01*
X48162606Y-52435100D01*
X48090871Y-52266627D01*
X47992347Y-52156494D01*
X47862569Y-52095772D01*
X47697072Y-52075531D01*
X47531575Y-52095772D01*
X47401797Y-52156494D01*
X47303273Y-52266627D01*
X47231538Y-52435100D01*
X47199126Y-52582208D01*
X47179679Y-52760008D01*
X47173197Y-52968500D01*
X46854189Y-52968500D01*
X46932691Y-52876822D01*
X46982697Y-52750318D01*
X46999366Y-52594644D01*
X46984681Y-52431264D01*
X46940628Y-52299898D01*
X46867206Y-52200547D01*
X46762299Y-52131094D01*
X46623790Y-52089422D01*
X46451678Y-52075531D01*
X46314624Y-52080823D01*
X46179686Y-52096698D01*
X46046866Y-52123156D01*
X46046866Y-53837656D01*
X45134847Y-53837656D01*
X45134847Y-53242344D01*
X45272959Y-53254250D01*
X45442690Y-53238375D01*
X45580405Y-53190750D01*
X45686106Y-53111375D01*
X45760851Y-52997340D01*
X45805698Y-52845733D01*
X45820647Y-52656556D01*
X45806095Y-52470686D01*
X45762439Y-52322652D01*
X45689678Y-52212453D01*
X45585168Y-52136385D01*
X45446261Y-52090745D01*
X45272959Y-52075531D01*
X45135905Y-52080823D01*
X45000968Y-52096698D01*
X44868147Y-52123156D01*
X44868147Y-53837656D01*
X43758665Y-53837656D01*
X43728592Y-53810399D01*
X43650125Y-53723825D01*
X43580522Y-53629976D01*
X43520453Y-53529757D01*
X43470497Y-53424132D01*
X43431134Y-53314120D01*
X43402743Y-53200779D01*
X43385599Y-53085202D01*
X43379866Y-52968500D01*
X43385599Y-52851798D01*
X43402743Y-52736221D01*
X43431134Y-52622880D01*
X43470497Y-52512868D01*
X43520453Y-52407243D01*
X43580522Y-52307024D01*
X43650125Y-52213175D01*
X43728592Y-52126601D01*
X43815166Y-52048134D01*
X43909015Y-51978531D01*
X44009234Y-51918462D01*
X44114858Y-51868506D01*
X44224870Y-51829143D01*
X44338211Y-51800753D01*
X44453789Y-51783608D01*
X44570491Y-51777875D01*
X49673509Y-51777875D01*
X49790211Y-51783608D01*
X49905789Y-51800753D01*
X50019130Y-51829143D01*
X50129142Y-51868506D01*
X50234766Y-51918463D01*
X50334985Y-51978532D01*
X50428834Y-52048134D01*
X50515408Y-52126601D01*
X50593875Y-52213176D01*
X50663478Y-52307024D01*
X50723547Y-52407243D01*
X50773503Y-52512868D01*
X50812866Y-52622880D01*
X50841257Y-52736221D01*
X50858401Y-52851798D01*
X50864134Y-52968500D01*
X50858401Y-53085202D01*
X50841257Y-53200779D01*
X50812866Y-53314120D01*
X50773503Y-53424132D01*
X50723547Y-53529757D01*
X50663478Y-53629976D01*
X50593875Y-53723824D01*
X50515408Y-53810399D01*
X50428834Y-53888866D01*
X50334985Y-53958468D01*
X50234766Y-54018537D01*
X50129142Y-54068494D01*
X50019130Y-54107857D01*
X49905789Y-54136247D01*
X49790211Y-54153392D01*
X49673509Y-54159125D01*
X44570491Y-54159125D01*
X44453789Y-54153392D01*
G37*
G36*
X45401249Y-52304727D02*
G01*
X45490844Y-52370806D01*
X45543529Y-52486297D01*
X45561091Y-52656556D01*
X45543529Y-52839615D01*
X45490844Y-52960166D01*
X45401249Y-53027138D01*
X45272959Y-53049463D01*
X45134847Y-53032794D01*
X45134847Y-52301750D01*
X45272959Y-52282700D01*
X45401249Y-52304727D01*
G37*
%TO.C,kibuzzard-63DE4E9A*%
G36*
X67162561Y-51167109D02*
G01*
X67276266Y-51277838D01*
X67325214Y-51400604D01*
X67354582Y-51572054D01*
X67364372Y-51792188D01*
X67354715Y-52035340D01*
X67325743Y-52221871D01*
X67277456Y-52351781D01*
X67164049Y-52466081D01*
X66997659Y-52504181D01*
X66890503Y-52482750D01*
X66890503Y-51151631D01*
X66997659Y-51130200D01*
X67162561Y-51167109D01*
G37*
G36*
X63413928Y-50625375D02*
G01*
X68412072Y-50625375D01*
X68412072Y-53006625D01*
X63413928Y-53006625D01*
X63413928Y-51804094D01*
X64202072Y-51804094D01*
X64211374Y-52016174D01*
X64239279Y-52199977D01*
X64285788Y-52355502D01*
X64350900Y-52482750D01*
X64434616Y-52581721D01*
X64536935Y-52652414D01*
X64657858Y-52694830D01*
X64797384Y-52708969D01*
X64939730Y-52699708D01*
X65010412Y-52685156D01*
X65452228Y-52685156D01*
X65714166Y-52685156D01*
X65714166Y-51423094D01*
X65718928Y-51423094D01*
X66090403Y-52685156D01*
X66357103Y-52685156D01*
X66357103Y-52661344D01*
X66623803Y-52661344D01*
X66802992Y-52697062D01*
X66997659Y-52708969D01*
X67195303Y-52688430D01*
X67350084Y-52626816D01*
X67467659Y-52514599D01*
X67553681Y-52342256D01*
X67592707Y-52191179D01*
X67616123Y-52007823D01*
X67623928Y-51792188D01*
X67614775Y-51569615D01*
X67587316Y-51382910D01*
X67541552Y-51232073D01*
X67477481Y-51117103D01*
X67359080Y-51009285D01*
X67199140Y-50944595D01*
X66997659Y-50923031D01*
X66810136Y-50934938D01*
X66623803Y-50970656D01*
X66623803Y-52661344D01*
X66357103Y-52661344D01*
X66357103Y-50946844D01*
X66107072Y-50946844D01*
X66107072Y-52208906D01*
X66099928Y-52208906D01*
X65728453Y-50946844D01*
X65452228Y-50946844D01*
X65452228Y-52685156D01*
X65010412Y-52685156D01*
X65074668Y-52671927D01*
X65202197Y-52625625D01*
X65202197Y-51649313D01*
X64647366Y-51649313D01*
X64647366Y-51851719D01*
X64947403Y-51851719D01*
X64947403Y-52475606D01*
X64804528Y-52504181D01*
X64659272Y-52463700D01*
X64552116Y-52342256D01*
X64503168Y-52210494D01*
X64473799Y-52031106D01*
X64464009Y-51804094D01*
X64474328Y-51582241D01*
X64505284Y-51408806D01*
X64556878Y-51283791D01*
X64675345Y-51170384D01*
X64845009Y-51132581D01*
X64990861Y-51146869D01*
X65142666Y-51189731D01*
X65142666Y-50975419D01*
X64996814Y-50936128D01*
X64845009Y-50923031D01*
X64648556Y-50946579D01*
X64487822Y-51017223D01*
X64362806Y-51134963D01*
X64292485Y-51256257D01*
X64242255Y-51408211D01*
X64212118Y-51590823D01*
X64202072Y-51804094D01*
X63413928Y-51804094D01*
X63413928Y-50625375D01*
G37*
%TO.C,kibuzzard-63DE4E81*%
G36*
X70635416Y-52025550D02*
G01*
X70309184Y-52025550D01*
X70471109Y-51208781D01*
X70473491Y-51208781D01*
X70635416Y-52025550D01*
G37*
G36*
X73016666Y-52025550D02*
G01*
X72690434Y-52025550D01*
X72852359Y-51208781D01*
X72854741Y-51208781D01*
X73016666Y-52025550D01*
G37*
G36*
X69354898Y-51167109D02*
G01*
X69468603Y-51277838D01*
X69517551Y-51400604D01*
X69546920Y-51572054D01*
X69556709Y-51792188D01*
X69547052Y-52035340D01*
X69518080Y-52221871D01*
X69469794Y-52351781D01*
X69356387Y-52466081D01*
X69189997Y-52504181D01*
X69082841Y-52482750D01*
X69082841Y-51151631D01*
X69189997Y-51130200D01*
X69354898Y-51167109D01*
G37*
G36*
X68518484Y-50625375D02*
G01*
X73721516Y-50625375D01*
X73721516Y-53006625D01*
X68518484Y-53006625D01*
X68518484Y-52661344D01*
X68816141Y-52661344D01*
X68995330Y-52697062D01*
X69189997Y-52708969D01*
X69387641Y-52688430D01*
X69395866Y-52685156D01*
X69911516Y-52685156D01*
X70178216Y-52685156D01*
X70268703Y-52227956D01*
X70675897Y-52227956D01*
X70766384Y-52685156D01*
X71042609Y-52685156D01*
X70679749Y-51154013D01*
X71180722Y-51154013D01*
X71535528Y-51154013D01*
X71535528Y-52685156D01*
X71802228Y-52685156D01*
X72292766Y-52685156D01*
X72559466Y-52685156D01*
X72649953Y-52227956D01*
X73057147Y-52227956D01*
X73147634Y-52685156D01*
X73423859Y-52685156D01*
X73011903Y-50946844D01*
X72702341Y-50946844D01*
X72292766Y-52685156D01*
X71802228Y-52685156D01*
X71802228Y-51154013D01*
X72157034Y-51154013D01*
X72157034Y-50946844D01*
X71180722Y-50946844D01*
X71180722Y-51154013D01*
X70679749Y-51154013D01*
X70630653Y-50946844D01*
X70321091Y-50946844D01*
X69911516Y-52685156D01*
X69395866Y-52685156D01*
X69542422Y-52626816D01*
X69659996Y-52514599D01*
X69746019Y-52342256D01*
X69785045Y-52191179D01*
X69808460Y-52007823D01*
X69816266Y-51792188D01*
X69807113Y-51569615D01*
X69779654Y-51382910D01*
X69733889Y-51232073D01*
X69669819Y-51117103D01*
X69551418Y-51009285D01*
X69391477Y-50944595D01*
X69189997Y-50923031D01*
X69002473Y-50934938D01*
X68816141Y-50970656D01*
X68816141Y-52661344D01*
X68518484Y-52661344D01*
X68518484Y-50625375D01*
G37*
%TO.C,kibuzzard-63DE4E9A*%
G36*
X83418561Y-51167109D02*
G01*
X83532266Y-51277838D01*
X83581214Y-51400604D01*
X83610582Y-51572054D01*
X83620372Y-51792188D01*
X83610715Y-52035340D01*
X83581743Y-52221871D01*
X83533456Y-52351781D01*
X83420049Y-52466081D01*
X83253659Y-52504181D01*
X83146503Y-52482750D01*
X83146503Y-51151631D01*
X83253659Y-51130200D01*
X83418561Y-51167109D01*
G37*
G36*
X79669928Y-50625375D02*
G01*
X84668072Y-50625375D01*
X84668072Y-53006625D01*
X79669928Y-53006625D01*
X79669928Y-51804094D01*
X80458072Y-51804094D01*
X80467374Y-52016174D01*
X80495279Y-52199977D01*
X80541788Y-52355502D01*
X80606900Y-52482750D01*
X80690616Y-52581721D01*
X80792935Y-52652414D01*
X80913858Y-52694830D01*
X81053384Y-52708969D01*
X81195730Y-52699708D01*
X81266412Y-52685156D01*
X81708228Y-52685156D01*
X81970166Y-52685156D01*
X81970166Y-51423094D01*
X81974928Y-51423094D01*
X82346403Y-52685156D01*
X82613103Y-52685156D01*
X82613103Y-52661344D01*
X82879803Y-52661344D01*
X83058992Y-52697062D01*
X83253659Y-52708969D01*
X83451303Y-52688430D01*
X83606084Y-52626816D01*
X83723659Y-52514599D01*
X83809681Y-52342256D01*
X83848707Y-52191179D01*
X83872123Y-52007823D01*
X83879928Y-51792188D01*
X83870775Y-51569615D01*
X83843316Y-51382910D01*
X83797552Y-51232073D01*
X83733481Y-51117103D01*
X83615080Y-51009285D01*
X83455140Y-50944595D01*
X83253659Y-50923031D01*
X83066136Y-50934938D01*
X82879803Y-50970656D01*
X82879803Y-52661344D01*
X82613103Y-52661344D01*
X82613103Y-50946844D01*
X82363072Y-50946844D01*
X82363072Y-52208906D01*
X82355928Y-52208906D01*
X81984453Y-50946844D01*
X81708228Y-50946844D01*
X81708228Y-52685156D01*
X81266412Y-52685156D01*
X81330668Y-52671927D01*
X81458197Y-52625625D01*
X81458197Y-51649313D01*
X80903366Y-51649313D01*
X80903366Y-51851719D01*
X81203403Y-51851719D01*
X81203403Y-52475606D01*
X81060528Y-52504181D01*
X80915272Y-52463700D01*
X80808116Y-52342256D01*
X80759168Y-52210494D01*
X80729799Y-52031106D01*
X80720009Y-51804094D01*
X80730328Y-51582241D01*
X80761284Y-51408806D01*
X80812878Y-51283791D01*
X80931345Y-51170384D01*
X81101009Y-51132581D01*
X81246861Y-51146869D01*
X81398666Y-51189731D01*
X81398666Y-50975419D01*
X81252814Y-50936128D01*
X81101009Y-50923031D01*
X80904556Y-50946579D01*
X80743822Y-51017223D01*
X80618806Y-51134963D01*
X80548485Y-51256257D01*
X80498255Y-51408211D01*
X80468118Y-51590823D01*
X80458072Y-51804094D01*
X79669928Y-51804094D01*
X79669928Y-50625375D01*
G37*
%TO.C,kibuzzard-63DE564F*%
G36*
X96475550Y-57371059D02*
G01*
X95658781Y-57209134D01*
X95658781Y-57206753D01*
X96475550Y-57044828D01*
X96475550Y-57371059D01*
G37*
G36*
X97427194Y-63979096D02*
G01*
X97410393Y-64092362D01*
X97382570Y-64203436D01*
X97343994Y-64311248D01*
X97295037Y-64414760D01*
X97236169Y-64512974D01*
X97167958Y-64604946D01*
X97091061Y-64689789D01*
X97006218Y-64766686D01*
X96914246Y-64834897D01*
X96816032Y-64893765D01*
X96712520Y-64942722D01*
X96604708Y-64981298D01*
X96493634Y-65009121D01*
X96380368Y-65025922D01*
X96266000Y-65031541D01*
X96151632Y-65025922D01*
X96038366Y-65009121D01*
X95927292Y-64981298D01*
X95819480Y-64942722D01*
X95715968Y-64893765D01*
X95617754Y-64834897D01*
X95525782Y-64766686D01*
X95440939Y-64689789D01*
X95364042Y-64604946D01*
X95295831Y-64512974D01*
X95236963Y-64414760D01*
X95188006Y-64311248D01*
X95149430Y-64203436D01*
X95121607Y-64092362D01*
X95104806Y-63979096D01*
X95099188Y-63864728D01*
X95099188Y-63567072D01*
X95396844Y-63567072D01*
X97135156Y-63567072D01*
X97135156Y-62733634D01*
X96927987Y-62733634D01*
X96927987Y-63300372D01*
X96301719Y-63300372D01*
X96301719Y-62757447D01*
X96099313Y-62757447D01*
X96099313Y-63300372D01*
X95604012Y-63300372D01*
X95604012Y-62733634D01*
X95396844Y-62733634D01*
X95396844Y-63567072D01*
X95099188Y-63567072D01*
X95099188Y-62464553D01*
X95396844Y-62464553D01*
X96249331Y-62131178D01*
X97135156Y-62471697D01*
X97135156Y-62190709D01*
X96439831Y-61974016D01*
X96439831Y-61969253D01*
X97135156Y-61750178D01*
X97135156Y-61459666D01*
X96249331Y-61797803D01*
X95396844Y-61464428D01*
X95396844Y-61740653D01*
X96063594Y-61959728D01*
X96063594Y-61964491D01*
X95396844Y-62181184D01*
X95396844Y-62464553D01*
X95099188Y-62464553D01*
X95099188Y-61262022D01*
X95396844Y-61262022D01*
X95604012Y-61262022D01*
X95604012Y-60907216D01*
X97135156Y-60907216D01*
X97135156Y-60640516D01*
X95604012Y-60640516D01*
X95604012Y-60285709D01*
X95396844Y-60285709D01*
X95396844Y-61262022D01*
X95099188Y-61262022D01*
X95099188Y-58780759D01*
X95396844Y-58780759D01*
X97135156Y-58780759D01*
X97135156Y-58514059D01*
X96301719Y-58514059D01*
X96301719Y-57994947D01*
X96099313Y-57994947D01*
X96099313Y-58514059D01*
X95604012Y-58514059D01*
X95604012Y-57971134D01*
X95396844Y-57971134D01*
X95396844Y-58780759D01*
X95099188Y-58780759D01*
X95099188Y-57359153D01*
X95396844Y-57359153D01*
X97135156Y-57768728D01*
X97135156Y-57502028D01*
X96677956Y-57411541D01*
X96677956Y-57004347D01*
X97135156Y-56913859D01*
X97135156Y-56637634D01*
X95396844Y-57049591D01*
X95396844Y-57359153D01*
X95099188Y-57359153D01*
X95099188Y-56463803D01*
X95396844Y-56463803D01*
X97135156Y-56463803D01*
X97135156Y-56201866D01*
X95873094Y-56201866D01*
X95873094Y-56197103D01*
X97135156Y-55825628D01*
X97135156Y-55558928D01*
X95396844Y-55558928D01*
X95396844Y-55808959D01*
X96658906Y-55808959D01*
X96658906Y-55816103D01*
X95396844Y-56187578D01*
X95396844Y-56463803D01*
X95099188Y-56463803D01*
X95099188Y-55261272D01*
X95104806Y-55146904D01*
X95121607Y-55033638D01*
X95149430Y-54922564D01*
X95188006Y-54814752D01*
X95236963Y-54711240D01*
X95295831Y-54613026D01*
X95364042Y-54521054D01*
X95440939Y-54436211D01*
X95525782Y-54359314D01*
X95617754Y-54291103D01*
X95715968Y-54232235D01*
X95819480Y-54183278D01*
X95927292Y-54144702D01*
X96038366Y-54116879D01*
X96151632Y-54100078D01*
X96266000Y-54094459D01*
X96380368Y-54100078D01*
X96493634Y-54116879D01*
X96604708Y-54144702D01*
X96712520Y-54183278D01*
X96816032Y-54232235D01*
X96914246Y-54291103D01*
X97006218Y-54359314D01*
X97091061Y-54436211D01*
X97167958Y-54521054D01*
X97236169Y-54613026D01*
X97295037Y-54711240D01*
X97343994Y-54814752D01*
X97382570Y-54922564D01*
X97410393Y-55033638D01*
X97427194Y-55146904D01*
X97432812Y-55261272D01*
X97432812Y-63864728D01*
X97427194Y-63979096D01*
G37*
%TO.C,J2*%
X28251500Y-27713000D02*
X34751500Y-27713000D01*
X34751500Y-38753000D02*
X34751500Y-45693000D01*
X34751500Y-27713000D02*
X34751500Y-34653000D01*
X36061500Y-38753000D02*
X34751500Y-38753000D01*
X36451500Y-41783000D02*
X37451500Y-42283000D01*
X37451500Y-42283000D02*
X37451500Y-41283000D01*
X37451500Y-41283000D02*
X36451500Y-41783000D01*
X34751500Y-45693000D02*
X28251500Y-45693000D01*
X36061500Y-46993000D02*
X26941500Y-46993000D01*
X26941500Y-46993000D02*
X26941500Y-26413000D01*
X34751500Y-34653000D02*
X36061500Y-34653000D01*
X36061500Y-26413000D02*
X36061500Y-46993000D01*
X28251500Y-45693000D02*
X28251500Y-27713000D01*
X26941500Y-26413000D02*
X36061500Y-26413000D01*
X34751500Y-34653000D02*
X34751500Y-34653000D01*
%TO.C,J5*%
X85734000Y-60837000D02*
X85354000Y-61217000D01*
X93209000Y-57909000D02*
X92829000Y-58289000D01*
X80379000Y-61110000D02*
X80273000Y-61217000D01*
X83049000Y-57909000D02*
X82942000Y-58016000D01*
X85483000Y-60555000D02*
X85088000Y-60951000D01*
X80113000Y-60844000D02*
X80007000Y-60951000D01*
X88395000Y-58175000D02*
X88000000Y-58571000D01*
X78821000Y-65163000D02*
X79321000Y-65163000D01*
X94421000Y-53603000D02*
X94421000Y-64923000D01*
X79061000Y-55663000D02*
X94421000Y-55663000D01*
X79061000Y-61863000D02*
X94421000Y-61863000D01*
X79061000Y-64923000D02*
X94421000Y-64923000D01*
X83315000Y-58175000D02*
X83208000Y-58282000D01*
X90563000Y-60555000D02*
X90168000Y-60951000D01*
X79061000Y-53603000D02*
X94421000Y-53603000D01*
X88129000Y-57909000D02*
X87749000Y-58289000D01*
X79061000Y-53603000D02*
X79061000Y-64923000D01*
X90814000Y-60837000D02*
X90434000Y-61217000D01*
X79061000Y-64363000D02*
X94421000Y-64363000D01*
X78821000Y-64423000D02*
X78821000Y-65163000D01*
X93475000Y-58175000D02*
X93080000Y-58571000D01*
X88921000Y-59563000D02*
G75*
G03*
X88921000Y-59563000I-2180000J0D01*
G01*
X83841000Y-59563000D02*
G75*
G03*
X83841000Y-59563000I-2180000J0D01*
G01*
X94001000Y-59563000D02*
G75*
G03*
X94001000Y-59563000I-2180000J0D01*
G01*
%TO.C,RN2*%
X41547000Y-25088000D02*
X38747000Y-25088000D01*
X41547000Y-48288000D02*
X41547000Y-25088000D01*
X41547000Y-27798000D02*
X38747000Y-27798000D01*
X38747000Y-48288000D02*
X41547000Y-48288000D01*
X38747000Y-25088000D02*
X38747000Y-48288000D01*
%TO.C,J7*%
X72161000Y-23403000D02*
X72161000Y-20743000D01*
X84921000Y-23403000D02*
X84921000Y-20743000D01*
X72161000Y-20743000D02*
X84921000Y-20743000D01*
X72161000Y-23403000D02*
X84921000Y-23403000D01*
X69561000Y-22073000D02*
X69561000Y-20743000D01*
X69561000Y-20743000D02*
X70891000Y-20743000D01*
%TO.C,J4*%
X65139000Y-61110000D02*
X65033000Y-61217000D01*
X68075000Y-58175000D02*
X67968000Y-58282000D01*
X63821000Y-53603000D02*
X63821000Y-64923000D01*
X72889000Y-57909000D02*
X72509000Y-58289000D01*
X63821000Y-55663000D02*
X79181000Y-55663000D01*
X63821000Y-53603000D02*
X79181000Y-53603000D01*
X63821000Y-61863000D02*
X79181000Y-61863000D01*
X75574000Y-60837000D02*
X75194000Y-61217000D01*
X63821000Y-64363000D02*
X79181000Y-64363000D01*
X63581000Y-64423000D02*
X63581000Y-65163000D01*
X77969000Y-57909000D02*
X77589000Y-58289000D01*
X63821000Y-64923000D02*
X79181000Y-64923000D01*
X73155000Y-58175000D02*
X72760000Y-58571000D01*
X64873000Y-60844000D02*
X64767000Y-60951000D01*
X67809000Y-57909000D02*
X67702000Y-58016000D01*
X70494000Y-60837000D02*
X70114000Y-61217000D01*
X79181000Y-53603000D02*
X79181000Y-64923000D01*
X78235000Y-58175000D02*
X77840000Y-58571000D01*
X75323000Y-60555000D02*
X74928000Y-60951000D01*
X70243000Y-60555000D02*
X69848000Y-60951000D01*
X63581000Y-65163000D02*
X64081000Y-65163000D01*
X78761000Y-59563000D02*
G75*
G03*
X78761000Y-59563000I-2180000J0D01*
G01*
X68601000Y-59563000D02*
G75*
G03*
X68601000Y-59563000I-2180000J0D01*
G01*
X73681000Y-59563000D02*
G75*
G03*
X73681000Y-59563000I-2180000J0D01*
G01*
%TD*%
%LPC*%
D12*
%TO.C,H1*%
X89408000Y-22352000D03*
%TD*%
D13*
%TO.C,C4*%
X54864000Y-26945500D03*
X54864000Y-24870500D03*
%TD*%
D14*
%TO.C,D1*%
X50673000Y-24895000D03*
X50673000Y-22095000D03*
%TD*%
D15*
%TO.C,R3*%
X31689800Y-55727600D03*
X33689800Y-55727600D03*
%TD*%
D16*
%TO.C,J6*%
X44577000Y-22230000D03*
D17*
X44577000Y-24770000D03*
%TD*%
D18*
%TO.C,C6*%
X59563000Y-44743401D03*
D19*
X59563000Y-46243401D03*
%TD*%
D14*
%TO.C,R1*%
X48006000Y-24895000D03*
X48006000Y-22095000D03*
%TD*%
D20*
%TO.C,SW1*%
X33850000Y-52705000D03*
X29650000Y-52705000D03*
%TD*%
D18*
%TO.C,C7*%
X58674000Y-30099000D03*
D19*
X57174000Y-30099000D03*
%TD*%
D21*
%TO.C,Y1*%
X64553000Y-24892000D03*
X59673000Y-24892000D03*
%TD*%
D22*
%TO.C,C3*%
X69342000Y-24870500D03*
X69342000Y-26945500D03*
%TD*%
D23*
%TO.C,J1*%
X51821000Y-57921500D03*
D24*
X51821000Y-60461500D03*
X49281000Y-57921500D03*
X49281000Y-60461500D03*
X46741000Y-57921500D03*
X46741000Y-60461500D03*
%TD*%
D25*
%TO.C,RN1*%
X80137000Y-26528000D03*
D26*
X80137000Y-29068000D03*
X80137000Y-31608000D03*
X80137000Y-34148000D03*
X80137000Y-36688000D03*
X80137000Y-39228000D03*
X80137000Y-41768000D03*
X80137000Y-44308000D03*
X80137000Y-46848000D03*
%TD*%
D12*
%TO.C,H3*%
X32004000Y-61468000D03*
%TD*%
D27*
%TO.C,Q1*%
X71054000Y-44147500D03*
X69154000Y-44147500D03*
X70104000Y-46022500D03*
%TD*%
D28*
%TO.C,J3*%
X88655500Y-31623000D03*
D24*
X91195500Y-31623000D03*
X88655500Y-34163000D03*
X91195500Y-34163000D03*
X88655500Y-36703000D03*
X91195500Y-36703000D03*
X88655500Y-39243000D03*
X91195500Y-39243000D03*
X88655500Y-41783000D03*
X91195500Y-41783000D03*
%TD*%
D29*
%TO.C,C5*%
X62995900Y-44729400D03*
X65070900Y-44729400D03*
%TD*%
D30*
%TO.C,U3*%
X67586400Y-33092400D03*
X66786400Y-33092400D03*
X65986400Y-33092400D03*
X65186400Y-33092400D03*
X64386400Y-33092400D03*
X63586400Y-33092400D03*
X62786400Y-33092400D03*
X61986400Y-33092400D03*
D31*
X60536400Y-34542400D03*
X60536400Y-35342400D03*
X60536400Y-36142400D03*
X60536400Y-36942400D03*
X60536400Y-37742400D03*
X60536400Y-38542400D03*
X60536400Y-39342400D03*
X60536400Y-40142400D03*
D30*
X61986400Y-41592400D03*
X62786400Y-41592400D03*
X63586400Y-41592400D03*
X64386400Y-41592400D03*
X65186400Y-41592400D03*
X65986400Y-41592400D03*
X66786400Y-41592400D03*
X67586400Y-41592400D03*
D31*
X69036400Y-40142400D03*
X69036400Y-39342400D03*
X69036400Y-38542400D03*
X69036400Y-37742400D03*
X69036400Y-36942400D03*
X69036400Y-36142400D03*
X69036400Y-35342400D03*
X69036400Y-34542400D03*
%TD*%
D32*
%TO.C,C1*%
X65807500Y-30607000D03*
X63732500Y-30607000D03*
%TD*%
D12*
%TO.C,H2*%
X32004000Y-22352000D03*
%TD*%
D33*
%TO.C,J2*%
X32771500Y-41783000D03*
D24*
X30231500Y-41783000D03*
X32771500Y-39243000D03*
X30231500Y-39243000D03*
X32771500Y-36703000D03*
X30231500Y-36703000D03*
X32771500Y-34163000D03*
X30231500Y-34163000D03*
X32771500Y-31623000D03*
X30231500Y-31623000D03*
%TD*%
D34*
%TO.C,J5*%
X81661000Y-59563000D03*
D35*
X86741000Y-59563000D03*
X91821000Y-59563000D03*
%TD*%
D25*
%TO.C,RN2*%
X40147000Y-26528000D03*
D26*
X40147000Y-29068000D03*
X40147000Y-31608000D03*
X40147000Y-34148000D03*
X40147000Y-36688000D03*
X40147000Y-39228000D03*
X40147000Y-41768000D03*
X40147000Y-44308000D03*
X40147000Y-46848000D03*
%TD*%
D16*
%TO.C,J7*%
X70891000Y-22073000D03*
D17*
X73431000Y-22073000D03*
X75971000Y-22073000D03*
X78511000Y-22073000D03*
X81051000Y-22073000D03*
X83591000Y-22073000D03*
%TD*%
D34*
%TO.C,J4*%
X66421000Y-59563000D03*
D35*
X71501000Y-59563000D03*
X76581000Y-59563000D03*
%TD*%
D36*
X31623000Y-57277000D03*
X52578000Y-22098000D03*
X63627000Y-28575000D03*
X49276000Y-51181000D03*
X61595000Y-43180000D03*
X49276000Y-50038000D03*
X62484000Y-36957000D03*
X68961000Y-33020000D03*
X63373000Y-48768000D03*
X69850000Y-29083000D03*
X69850000Y-30226000D03*
X77343000Y-25019000D03*
M02*
